<svg version="1.1" viewBox="0.0 0.0 1024.0 768.0" fill="none" stroke="none" stroke-linecap="square" stroke-miterlimit="10" xmlns:xlink="http://www.w3.org/1999/xlink" xmlns="http://www.w3.org/2000/svg"><clipPath id="p.0"><path d="m0 0l1024.0 0l0 768.0l-1024.0 0l0 -768.0z" clip-rule="nonzero"/></clipPath><g clip-path="url(#p.0)"><path fill="#000000" fill-opacity="0.0" d="m0 0l1024.0 0l0 768.0l-1024.0 0z" fill-rule="evenodd"/><path fill="#fe938c" d="m101.88189 60.401573l332.7244 0l0 51.11811l-332.7244 0z" fill-rule="evenodd"/><path stroke="#000000" stroke-width="1.0" stroke-linejoin="round" stroke-linecap="butt" d="m101.88189 60.401573l332.7244 0l0 51.11811l-332.7244 0z" fill-rule="evenodd"/><path fill="#000000" d="m260.37534 90.740005q0 0.578125 0.1875 0.84375q0.1875 0.265625 0.609375 0.40625l-0.390625 1.109375q-1.4375 -0.1875 -1.796875 -1.390625q-0.515625 0.671875 -1.3125 1.03125q-0.796875 0.34375 -1.765625 0.34375q-1.46875 0 -2.328125 -0.8125q-0.84375 -0.828125 -0.84375 -2.203125q0 -1.515625 1.1875 -2.328125q1.1875 -0.828125 3.40625 -0.828125l1.453125 0l0 -0.796875q0 -1.046875 -0.59375 -1.5q-0.59375 -0.46875 -1.734375 -0.46875q-1.125 0 -2.5625 0.5l-0.421875 -1.1875q1.734375 -0.609375 3.234375 -0.609375q1.78125 0 2.71875 0.84375q0.953125 0.828125 0.953125 2.328125l0 4.71875zm-4.078125 1.171875q0.734375 0 1.390625 -0.375q0.671875 -0.375 1.09375 -1.03125l0 -2.515625l-1.421875 0q-1.5625 0 -2.25 0.53125q-0.6875 0.515625 -0.6875 1.53125q0 1.859375 1.875 1.859375zm12.615631 -9.0625q3.5625 0 3.5625 5.109375q0 2.328125 -0.96875 3.734375q-0.96875 1.390625 -2.8125 1.390625q-1.609375 0 -2.609375 -1.125l0 4.6875l-1.578125 0.1875l0 -13.78125l1.34375 0l0.140625 1.375q0.53125 -0.765625 1.28125 -1.171875q0.765625 -0.40625 1.640625 -0.40625zm-0.375 1.265625q-0.734375 0 -1.359375 0.453125q-0.625 0.4375 -1.09375 1.109375l0 4.875q0.390625 0.578125 0.96875 0.90625q0.59375 0.328125 1.28125 0.328125q1.234375 0 1.84375 -0.9375q0.609375 -0.953125 0.609375 -2.890625q0 -1.9375 -0.546875 -2.890625q-0.546875 -0.953125 -1.703125 -0.953125zm10.896881 -5.65625q0.53125 0 0.84375 0.3125q0.3125 0.296875 0.3125 0.78125q0 0.5 -0.3125 0.8125q-0.3125 0.296875 -0.84375 0.296875q-0.5 0 -0.8125 -0.296875q-0.296875 -0.3125 -0.296875 -0.8125q0 -0.484375 0.296875 -0.78125q0.3125 -0.3125 0.8125 -0.3125zm1.25 13.171875l2.765625 0l0 1.25l-7.359375 0l0 -1.25l3.03125 0l0 -7.328125l-2.9375 0l0 -1.25l4.5 0l0 8.578125z" fill-rule="nonzero"/><path fill="#e6b89c" d="m161.88977 167.76378l317.70078 0l0 51.11812l-317.70078 0z" fill-rule="evenodd"/><path stroke="#000000" stroke-width="1.0" stroke-linejoin="round" stroke-linecap="butt" d="m161.88977 167.76378l317.70078 0l0 51.11812l-317.70078 0z" fill-rule="evenodd"/><path fill="#000000" d="m285.23074 188.69595l-2.84375 0l0 10.265625l2.84375 0l0 1.28125l-7.34375 0l0 -1.28125l2.859375 0l0 -10.265625l-2.859375 0l0 -1.3125l7.34375 0l0 1.3125zm3.787506 1.71875l1.34375 0l0.140625 1.375q0.578125 -0.75 1.453125 -1.15625q0.890625 -0.421875 1.78125 -0.421875q2.765625 0 2.765625 2.90625l0 7.125l-1.5625 0l0 -5.96875q0 -1.109375 -0.125 -1.6875q-0.125 -0.578125 -0.484375 -0.84375q-0.34375 -0.28125 -1.078125 -0.28125q-0.796875 0 -1.515625 0.484375q-0.703125 0.484375 -1.140625 1.15625l0 7.140625l-1.578125 0l0 -9.828125zm17.006256 -4.140625q1.390625 0 2.65625 0.515625l-0.5 1.171875q-0.921875 -0.40625 -2.109375 -0.40625q-2.046875 0 -2.046875 1.625l0 2.0l3.328125 0l-0.171875 1.25l-3.15625 0l0 7.8125l-1.59375 0l0 -7.8125l-2.328125 0l0 -1.25l2.328125 0l0 -1.96875q0 -1.3125 1.015625 -2.125q1.03125 -0.8125 2.578125 -0.8125zm9.225006 11.546875q0 1.328125 1.625 1.328125q0.765625 0 1.640625 -0.34375l0.421875 1.140625q-0.9375 0.5 -2.34375 0.5q-1.3125 0 -2.109375 -0.71875q-0.796875 -0.734375 -0.796875 -1.984375l0 -10.03125l-3.015625 0l0 -1.25l4.578125 0l0 11.359375zm8.928131 -0.4375q0 0.953125 0.390625 1.390625q0.40625 0.4375 1.265625 0.4375q0.78125 0 1.5 -0.4375q0.734375 -0.453125 1.171875 -1.125l0 -7.234375l1.5625 0l0 9.828125l-1.34375 0l-0.125 -1.328125q-0.578125 0.734375 -1.4375 1.140625q-0.84375 0.390625 -1.71875 0.390625q-1.40625 0 -2.125 -0.734375q-0.71875 -0.75 -0.71875 -2.15625l0 -7.140625l1.578125 0l0 6.96875zm8.803131 2.859375l3.625 -5.1875l-3.203125 -4.640625l1.875 0l2.265625 3.65625l2.296875 -3.65625l1.8125 0l-3.1875 4.5625l3.625 5.265625l-1.90625 0l-2.703125 -4.21875l-2.71875 4.21875l-1.78125 0zm20.459381 -6.5q0 3.671875 -1.6875 5.09375q-1.671875 1.40625 -4.125 1.40625l-2.953125 0l0 -12.859375l2.75 0q2.703125 0 4.359375 1.375q1.65625 1.359375 1.65625 4.984375zm-1.734375 0q0 -2.078125 -0.578125 -3.1875q-0.5625 -1.109375 -1.40625 -1.46875q-0.828125 -0.375 -1.90625 -0.375l-1.515625 0l0 10.21875l1.53125 0q1.65625 0 2.765625 -1.140625q1.109375 -1.140625 1.109375 -4.046875zm12.693756 2.84375q0 1.9375 -1.390625 2.796875q-1.390625 0.859375 -3.421875 0.859375l-3.46875 0l0 -12.859375l3.171875 0q1.953125 0 3.25 0.765625q1.296875 0.75 1.296875 2.484375q0 1.15625 -0.6875 1.859375q-0.6875 0.703125 -1.71875 0.9375q2.96875 0.5 2.96875 3.15625zm-2.21875 -5.859375q0 -1.0625 -0.65625 -1.53125q-0.65625 -0.484375 -1.875 -0.484375l-1.90625 0l0 4.140625l2.0625 0q2.375 0 2.375 -2.125zm0.5 5.921875q0 -1.375 -0.734375 -1.90625q-0.734375 -0.546875 -2.03125 -0.546875l-2.171875 0l0 4.703125l2.125 0q1.171875 0 1.984375 -0.484375q0.828125 -0.484375 0.828125 -1.765625z" fill-rule="nonzero"/><path fill="#ead2ac" d="m343.2257 275.6286l136.37796 0l0 51.118103l-136.37796 0z" fill-rule="evenodd"/><path stroke="#000000" stroke-width="1.0" stroke-linejoin="round" stroke-linecap="butt" d="m343.2257 275.6286l136.37796 0l0 51.118103l-136.37796 0z" fill-rule="evenodd"/><path fill="#000000" d="m361.03967 282.6858q0.53125 0 0.84375 0.3125q0.3125 0.296875 0.3125 0.78125q0 0.5 -0.3125 0.8125q-0.3125 0.296875 -0.84375 0.296875q-0.5 0 -0.8125 -0.296875q-0.296875 -0.3125 -0.296875 -0.8125q0 -0.484375 0.296875 -0.78125q0.3125 -0.3125 0.8125 -0.3125zm1.25 13.171875l2.765625 0l0 1.25l-7.359375 0l0 -1.25l3.03125 0l0 -7.328125l-2.9375 0l0 -1.25l4.5 0l0 8.578125zm6.209381 -8.578125l1.34375 0l0.140625 1.375q0.578125 -0.75 1.453125 -1.15625q0.890625 -0.421875 1.78125 -0.421875q2.765625 0 2.765625 2.90625l0 7.125l-1.5625 0l0 -5.96875q0 -1.109375 -0.125 -1.6875q-0.125 -0.578125 -0.484375 -0.84375q-0.34375 -0.28125 -1.078125 -0.28125q-0.796875 0 -1.515625 0.484375q-0.703125 0.484375 -1.140625 1.15625l0 7.140625l-1.578125 0l0 -9.828125zm17.006256 -4.140625q1.390625 0 2.65625 0.515625l-0.5 1.171875q-0.921875 -0.40625 -2.109375 -0.40625q-2.046875 0 -2.046875 1.625l0 2.0l3.328125 0l-0.171875 1.25l-3.15625 0l0 7.8125l-1.59375 0l0 -7.8125l-2.328125 0l0 -1.25l2.328125 0l0 -1.96875q0 -1.3125 1.015625 -2.125q1.03125 -0.8125 2.578125 -0.8125zm9.225006 11.546875q0 1.328125 1.625 1.328125q0.765625 0 1.640625 -0.34375l0.421875 1.140625q-0.9375 0.5 -2.34375 0.5q-1.3125 0 -2.109375 -0.71875q-0.796875 -0.734375 -0.796875 -1.984375l0 -10.03125l-3.015625 0l0 -1.25l4.578125 0l0 11.359375zm8.928131 -0.4375q0 0.953125 0.390625 1.390625q0.40625 0.4375 1.265625 0.4375q0.78125 0 1.5 -0.4375q0.734375 -0.453125 1.171875 -1.125l0 -7.234375l1.5625 0l0 9.828125l-1.34375 0l-0.125 -1.328125q-0.578125 0.734375 -1.4375 1.140625q-0.84375 0.390625 -1.71875 0.390625q-1.40625 0 -2.125 -0.734375q-0.71875 -0.75 -0.71875 -2.15625l0 -7.140625l1.578125 0l0 6.96875zm8.803131 2.859375l3.625 -5.1875l-3.203125 -4.640625l1.875 0l2.265625 3.65625l2.296875 -3.65625l1.8125 0l-3.1875 4.5625l3.625 5.265625l-1.90625 0l-2.703125 -4.21875l-2.71875 4.21875l-1.78125 0zm11.084381 2.015625l9.328125 0l0 1.375l-9.328125 0l0 -1.375zm19.584381 -15.796875l0 13.78125l-1.375 0l-0.15625 -1.28125q-0.546875 0.734375 -1.25 1.109375q-0.703125 0.375 -1.53125 0.375q-1.859375 0 -2.8125 -1.359375q-0.9375 -1.359375 -0.9375 -3.75q0 -1.46875 0.46875 -2.640625q0.46875 -1.171875 1.328125 -1.828125q0.875 -0.65625 2.046875 -0.65625q1.625 0 2.65625 1.171875l0 -5.109375l1.5625 0.1875zm-3.8125 5.015625q-1.21875 0 -1.890625 0.96875q-0.65625 0.96875 -0.65625 2.890625q0 1.90625 0.59375 2.890625q0.609375 0.96875 1.765625 0.96875q1.40625 0 2.4375 -1.5625l0 -4.890625q-0.421875 -0.609375 -1.0 -0.9375q-0.578125 -0.328125 -1.25 -0.328125zm14.600006 6.625q0 0.578125 0.1875 0.84375q0.1875 0.265625 0.609375 0.40625l-0.390625 1.109375q-1.4375 -0.1875 -1.796875 -1.390625q-0.515625 0.671875 -1.3125 1.03125q-0.796875 0.34375 -1.765625 0.34375q-1.46875 0 -2.328125 -0.8125q-0.84375 -0.828125 -0.84375 -2.203125q0 -1.515625 1.1875 -2.328125q1.1875 -0.828125 3.40625 -0.828125l1.453125 0l0 -0.796875q0 -1.046875 -0.59375 -1.5q-0.59375 -0.46875 -1.734375 -0.46875q-1.125 0 -2.5625 0.5l-0.421875 -1.1875q1.734375 -0.609375 3.234375 -0.609375q1.78125 0 2.71875 0.84375q0.953125 0.828125 0.953125 2.328125l0 4.71875zm-4.078125 1.171875q0.734375 0 1.390625 -0.375q0.671875 -0.375 1.09375 -1.03125l0 -2.515625l-1.421875 0q-1.5625 0 -2.25 0.53125q-0.6875 0.515625 -0.6875 1.53125q0 1.859375 1.875 1.859375zm16.037506 0.46875q-0.515625 0.328125 -1.234375 0.515625q-0.703125 0.1875 -1.421875 0.1875q-1.546875 0 -2.421875 -0.8125q-0.875 -0.8125 -0.875 -2.140625l0 -5.84375l-2.265625 0l0 -1.234375l2.265625 0l0 -2.21875l1.5625 -0.1875l0 2.40625l3.421875 0l-0.21875 1.234375l-3.203125 0l0 5.828125q0 0.84375 0.4375 1.265625q0.453125 0.40625 1.453125 0.40625q1.0 0 1.875 -0.46875l0.625 1.0625z" fill-rule="nonzero"/><path fill="#000000" d="m414.7397 316.96704q0 0.578125 0.1875 0.84375q0.1875 0.265625 0.609375 0.40625l-0.390625 1.109375q-1.4375 -0.1875 -1.796875 -1.390625q-0.515625 0.671875 -1.3125 1.03125q-0.796875 0.34375 -1.765625 0.34375q-1.46875 0 -2.328125 -0.8125q-0.84375 -0.828125 -0.84375 -2.203125q0 -1.515625 1.1875 -2.328125q1.1875 -0.828125 3.40625 -0.828125l1.453125 0l0 -0.796875q0 -1.046875 -0.59375 -1.5q-0.59375 -0.46875 -1.734375 -0.46875q-1.125 0 -2.5625 0.5l-0.421875 -1.1875q1.734375 -0.609375 3.234375 -0.609375q1.78125 0 2.71875 0.84375q0.953125 0.828125 0.953125 2.328125l0 4.71875zm-4.078125 1.171875q0.734375 0 1.390625 -0.375q0.671875 -0.375 1.09375 -1.03125l0 -2.515625l-1.421875 0q-1.5625 0 -2.25 0.53125q-0.6875 0.515625 -0.6875 1.53125q0 1.859375 1.875 1.859375z" fill-rule="nonzero"/><path fill="#86bbd8" d="m146.8412 497.0l136.37794 0l0 51.118103l-136.37794 0z" fill-rule="evenodd"/><path stroke="#000000" stroke-width="1.0" stroke-linejoin="round" stroke-linecap="butt" d="m146.8412 497.0l136.37794 0l0 51.118103l-136.37794 0z" fill-rule="evenodd"/><path fill="#000000" d="m164.28015 528.40094q1.125 0 1.78125 -0.421875q0.65625 -0.4375 0.65625 -1.15625q0 -0.484375 -0.171875 -0.78125q-0.171875 -0.3125 -0.671875 -0.5625q-0.5 -0.25 -1.53125 -0.515625q-1.71875 -0.421875 -2.546875 -1.03125q-0.8125 -0.609375 -0.8125 -1.796875q0 -1.234375 1.015625 -1.953125q1.03125 -0.734375 2.71875 -0.734375q2.046875 0 3.578125 1.078125l-0.703125 1.078125q-0.625 -0.421875 -1.296875 -0.65625q-0.671875 -0.234375 -1.546875 -0.234375q-2.125 0 -2.125 1.28125q0 0.453125 0.234375 0.734375q0.234375 0.28125 0.765625 0.5q0.53125 0.203125 1.59375 0.5q1.609375 0.4375 2.390625 1.09375q0.796875 0.65625 0.796875 1.9375q0 1.46875 -1.203125 2.203125q-1.1875 0.71875 -2.921875 0.71875q-2.3125 0 -3.84375 -1.328125l0.875 -1.015625q0.609375 0.484375 1.375 0.78125q0.765625 0.28125 1.59375 0.28125zm12.240631 -8.953125q3.5625 0 3.5625 5.109375q0 2.328125 -0.96875 3.734375q-0.96875 1.390625 -2.8125 1.390625q-1.609375 0 -2.609375 -1.125l0 4.6875l-1.578125 0.1875l0 -13.78125l1.34375 0l0.140625 1.375q0.53125 -0.765625 1.28125 -1.171875q0.765625 -0.40625 1.640625 -0.40625zm-0.375 1.265625q-0.734375 0 -1.359375 0.453125q-0.625 0.4375 -1.09375 1.109375l0 4.875q0.390625 0.578125 0.96875 0.90625q0.59375 0.328125 1.28125 0.328125q1.234375 0 1.84375 -0.9375q0.609375 -0.953125 0.609375 -2.890625q0 -1.9375 -0.546875 -2.890625q-0.546875 -0.953125 -1.703125 -0.953125zm6.240631 10.78125l9.328125 0l0 1.375l-9.328125 0l0 -1.375zm16.584381 -3.15625q1.28125 0 2.546875 -0.859375l0.75 1.03125q-0.609375 0.546875 -1.53125 0.859375q-0.90625 0.3125 -1.765625 0.3125q-2.1875 0 -3.40625 -1.359375q-1.21875 -1.375 -1.21875 -3.71875q0 -1.46875 0.546875 -2.640625q0.546875 -1.171875 1.59375 -1.84375q1.046875 -0.671875 2.484375 -0.671875q1.90625 0 3.28125 1.15625l-0.765625 1.015625q-1.28125 -0.859375 -2.53125 -0.859375q-1.328125 0 -2.125 0.984375q-0.796875 0.984375 -0.796875 2.859375q0 1.890625 0.796875 2.8125q0.796875 0.921875 2.140625 0.921875zm10.475006 -8.890625q2.046875 0 3.125 1.375q1.09375 1.359375 1.09375 3.734375q0 2.3125 -1.109375 3.71875q-1.109375 1.40625 -3.125 1.40625q-2.03125 0 -3.140625 -1.359375q-1.09375 -1.375 -1.09375 -3.75q0 -2.328125 1.109375 -3.71875q1.109375 -1.40625 3.140625 -1.40625zm0 1.28125q-1.28125 0 -1.921875 0.953125q-0.625 0.953125 -0.625 2.890625q0 1.9375 0.625 2.890625q0.625 0.9375 1.90625 0.9375q1.296875 0 1.921875 -0.9375q0.625 -0.953125 0.625 -2.90625q0 -1.9375 -0.625 -2.875q-0.625 -0.953125 -1.90625 -0.953125zm13.928131 -1.28125q0.828125 0 1.359375 0.59375q0.546875 0.578125 0.546875 2.125l0 7.3125l-1.4375 0l0 -7.046875q0 -1.03125 -0.140625 -1.390625q-0.125 -0.375 -0.625 -0.375q-0.953125 0 -1.71875 1.1875l0 7.625l-1.453125 0l0 -7.046875q0 -1.03125 -0.140625 -1.390625q-0.125 -0.375 -0.625 -0.375q-0.953125 0 -1.71875 1.1875l0 7.625l-1.4375 0l0 -9.828125l1.21875 0l0.109375 1.15625q0.4375 -0.65625 0.9375 -1.0q0.5 -0.359375 1.1875 -0.359375q1.375 0 1.765625 1.296875q0.453125 -0.625 0.953125 -0.953125q0.5 -0.34375 1.21875 -0.34375zm11.193756 0q0.828125 0 1.359375 0.59375q0.546875 0.578125 0.546875 2.125l0 7.3125l-1.4375 0l0 -7.046875q0 -1.03125 -0.140625 -1.390625q-0.125 -0.375 -0.625 -0.375q-0.953125 0 -1.71875 1.1875l0 7.625l-1.453125 0l0 -7.046875q0 -1.03125 -0.140625 -1.390625q-0.125 -0.375 -0.625 -0.375q-0.953125 0 -1.71875 1.1875l0 7.625l-1.4375 0l0 -9.828125l1.21875 0l0.109375 1.15625q0.4375 -0.65625 0.9375 -1.0q0.5 -0.359375 1.1875 -0.359375q1.375 0 1.765625 1.296875q0.453125 -0.625 0.953125 -0.953125q0.5 -0.34375 1.21875 -0.34375zm11.771881 7.890625q0 0.578125 0.1875 0.84375q0.1875 0.265625 0.609375 0.40625l-0.390625 1.109375q-1.4375 -0.1875 -1.796875 -1.390625q-0.515625 0.671875 -1.3125 1.03125q-0.796875 0.34375 -1.765625 0.34375q-1.46875 0 -2.328125 -0.8125q-0.84375 -0.828125 -0.84375 -2.203125q0 -1.515625 1.1875 -2.328125q1.1875 -0.828125 3.40625 -0.828125l1.453125 0l0 -0.796875q0 -1.046875 -0.59375 -1.5q-0.59375 -0.46875 -1.734375 -0.46875q-1.125 0 -2.5625 0.5l-0.421875 -1.1875q1.734375 -0.609375 3.234375 -0.609375q1.78125 0 2.71875 0.84375q0.953125 0.828125 0.953125 2.328125l0 4.71875zm-4.078125 1.171875q0.734375 0 1.390625 -0.375q0.671875 -0.375 1.09375 -1.03125l0 -2.515625l-1.421875 0q-1.5625 0 -2.25 0.53125q-0.6875 0.515625 -0.6875 1.53125q0 1.859375 1.875 1.859375zm8.209381 -8.859375l1.34375 0l0.140625 1.375q0.578125 -0.75 1.453125 -1.15625q0.890625 -0.421875 1.78125 -0.421875q2.765625 0 2.765625 2.90625l0 7.125l-1.5625 0l0 -5.96875q0 -1.109375 -0.125 -1.6875q-0.125 -0.578125 -0.484375 -0.84375q-0.34375 -0.28125 -1.078125 -0.28125q-0.796875 0 -1.515625 0.484375q-0.703125 0.484375 -1.140625 1.15625l0 7.140625l-1.578125 0l0 -9.828125zm18.662506 -3.953125l0 13.78125l-1.375 0l-0.15625 -1.28125q-0.546875 0.734375 -1.25 1.109375q-0.703125 0.375 -1.53125 0.375q-1.859375 0 -2.8125 -1.359375q-0.9375 -1.359375 -0.9375 -3.75q0 -1.46875 0.46875 -2.640625q0.46875 -1.171875 1.328125 -1.828125q0.875 -0.65625 2.046875 -0.65625q1.625 0 2.65625 1.171875l0 -5.109375l1.5625 0.1875zm-3.8125 5.015625q-1.21875 0 -1.890625 0.96875q-0.65625 0.96875 -0.65625 2.890625q0 1.90625 0.59375 2.890625q0.609375 0.96875 1.765625 0.96875q1.40625 0 2.4375 -1.5625l0 -4.890625q-0.421875 -0.609375 -1.0 -0.9375q-0.578125 -0.328125 -1.25 -0.328125z" fill-rule="nonzero"/><path fill="#86bbd8" d="m343.25723 497.0l136.37793 0l0 51.118103l-136.37793 0z" fill-rule="evenodd"/><path stroke="#000000" stroke-width="1.0" stroke-linejoin="round" stroke-linecap="butt" d="m343.25723 497.0l136.37793 0l0 51.118103l-136.37793 0z" fill-rule="evenodd"/><path fill="#000000" d="m377.4868 528.40094q1.125 0 1.78125 -0.421875q0.65625 -0.4375 0.65625 -1.15625q0 -0.484375 -0.171875 -0.78125q-0.171875 -0.3125 -0.671875 -0.5625q-0.5 -0.25 -1.53125 -0.515625q-1.71875 -0.421875 -2.546875 -1.03125q-0.8125 -0.609375 -0.8125 -1.796875q0 -1.234375 1.015625 -1.953125q1.03125 -0.734375 2.71875 -0.734375q2.046875 0 3.578125 1.078125l-0.703125 1.078125q-0.625 -0.421875 -1.296875 -0.65625q-0.671875 -0.234375 -1.546875 -0.234375q-2.125 0 -2.125 1.28125q0 0.453125 0.234375 0.734375q0.234375 0.28125 0.765625 0.5q0.53125 0.203125 1.59375 0.5q1.609375 0.4375 2.390625 1.09375q0.796875 0.65625 0.796875 1.9375q0 1.46875 -1.203125 2.203125q-1.1875 0.71875 -2.921875 0.71875q-2.3125 0 -3.84375 -1.328125l0.875 -1.015625q0.609375 0.484375 1.375 0.78125q0.765625 0.28125 1.59375 0.28125zm12.240631 -8.953125q3.5625 0 3.5625 5.109375q0 2.328125 -0.96875 3.734375q-0.96875 1.390625 -2.8125 1.390625q-1.609375 0 -2.609375 -1.125l0 4.6875l-1.578125 0.1875l0 -13.78125l1.34375 0l0.140625 1.375q0.53125 -0.765625 1.28125 -1.171875q0.765625 -0.40625 1.640625 -0.40625zm-0.375 1.265625q-0.734375 0 -1.359375 0.453125q-0.625 0.4375 -1.09375 1.109375l0 4.875q0.390625 0.578125 0.96875 0.90625q0.59375 0.328125 1.28125 0.328125q1.234375 0 1.84375 -0.9375q0.609375 -0.953125 0.609375 -2.890625q0 -1.9375 -0.546875 -2.890625q-0.546875 -0.953125 -1.703125 -0.953125zm6.240631 10.78125l9.328125 0l0 1.375l-9.328125 0l0 -1.375zm19.584412 -15.796875l0 13.78125l-1.375 0l-0.15625 -1.28125q-0.546875 0.734375 -1.25 1.109375q-0.703125 0.375 -1.53125 0.375q-1.859375 0 -2.8125 -1.359375q-0.9375305 -1.359375 -0.9375305 -3.75q0 -1.46875 0.46878052 -2.640625q0.46875 -1.171875 1.328125 -1.828125q0.875 -0.65625 2.046875 -0.65625q1.625 0 2.65625 1.171875l0 -5.109375l1.5625 0.1875zm-3.8125 5.015625q-1.21875 0 -1.890625 0.96875q-0.65625 0.96875 -0.65625 2.890625q0 1.90625 0.59375 2.890625q0.609375 0.96875 1.765625 0.96875q1.40625 0 2.4375 -1.5625l0 -4.890625q-0.421875 -0.609375 -1.0 -0.9375q-0.578125 -0.328125 -1.25 -0.328125zm14.600006 6.625q0 0.578125 0.1875 0.84375q0.1875 0.265625 0.609375 0.40625l-0.390625 1.109375q-1.4375 -0.1875 -1.796875 -1.390625q-0.515625 0.671875 -1.3125 1.03125q-0.796875 0.34375 -1.765625 0.34375q-1.46875 0 -2.328125 -0.8125q-0.84375 -0.828125 -0.84375 -2.203125q0 -1.515625 1.1875 -2.328125q1.1875 -0.828125 3.40625 -0.828125l1.453125 0l0 -0.796875q0 -1.046875 -0.59375 -1.5q-0.59375 -0.46875 -1.734375 -0.46875q-1.125 0 -2.5625 0.5l-0.421875 -1.1875q1.734375 -0.609375 3.234375 -0.609375q1.78125 0 2.71875 0.84375q0.953125 0.828125 0.953125 2.328125l0 4.71875zm-4.078125 1.171875q0.734375 0 1.390625 -0.375q0.671875 -0.375 1.09375 -1.03125l0 -2.515625l-1.421875 0q-1.5625 0 -2.25 0.53125q-0.6875 0.515625 -0.6875 1.53125q0 1.859375 1.875 1.859375zm16.037506 0.46875q-0.515625 0.328125 -1.234375 0.515625q-0.703125 0.1875 -1.421875 0.1875q-1.546875 0 -2.421875 -0.8125q-0.875 -0.8125 -0.875 -2.140625l0 -5.84375l-2.265625 0l0 -1.234375l2.265625 0l0 -2.21875l1.5625 -0.1875l0 2.40625l3.421875 0l-0.21875 1.234375l-3.203125 0l0 5.828125q0 0.84375 0.4375 1.265625q0.453125 0.40625 1.453125 0.40625q1.0 0 1.875 -0.46875l0.625 1.0625zm10.428131 -1.640625q0 0.578125 0.1875 0.84375q0.1875 0.265625 0.609375 0.40625l-0.390625 1.109375q-1.4375 -0.1875 -1.796875 -1.390625q-0.515625 0.671875 -1.3125 1.03125q-0.796875 0.34375 -1.765625 0.34375q-1.46875 0 -2.328125 -0.8125q-0.84375 -0.828125 -0.84375 -2.203125q0 -1.515625 1.1875 -2.328125q1.1875 -0.828125 3.40625 -0.828125l1.453125 0l0 -0.796875q0 -1.046875 -0.59375 -1.5q-0.59375 -0.46875 -1.734375 -0.46875q-1.125 0 -2.5625 0.5l-0.421875 -1.1875q1.734375 -0.609375 3.234375 -0.609375q1.78125 0 2.71875 0.84375q0.953125 0.828125 0.953125 2.328125l0 4.71875zm-4.078125 1.171875q0.734375 0 1.390625 -0.375q0.671875 -0.375 1.09375 -1.03125l0 -2.515625l-1.421875 0q-1.5625 0 -2.25 0.53125q-0.6875 0.515625 -0.6875 1.53125q0 1.859375 1.875 1.859375z" fill-rule="nonzero"/><path fill="#979fd8" d="m146.98032 614.13385l332.7244 0l0 51.118103l-332.7244 0z" fill-rule="evenodd"/><path stroke="#000000" stroke-width="1.0" stroke-linejoin="round" stroke-linecap="butt" stroke-dasharray="4.0,3.0" d="m146.98032 614.13385l332.7244 0l0 51.118103l-332.7244 0z" fill-rule="evenodd"/><path fill="#000000" d="m267.38934 643.0504q0 1.125 -0.5625 1.96875q-0.546875 0.84375 -1.625 1.328125q-1.0625 0.46875 -2.515625 0.46875q-1.390625 0 -2.546875 -0.421875q-1.140625 -0.421875 -1.96875 -1.203125l0.96875 -1.09375q0.71875 0.671875 1.578125 1.03125q0.875 0.34375 1.984375 0.34375q1.28125 0 2.140625 -0.609375q0.859375 -0.625 0.859375 -1.78125q0 -0.640625 -0.25 -1.0625q-0.25 -0.4375 -0.859375 -0.765625q-0.59375 -0.34375 -1.703125 -0.671875q-2.078125 -0.609375 -3.109375 -1.4375q-1.03125 -0.828125 -1.03125 -2.265625q0 -0.953125 0.515625 -1.71875q0.53125 -0.765625 1.484375 -1.1875q0.953125 -0.421875 2.171875 -0.421875q1.265625 0 2.265625 0.375q1.0 0.375 1.828125 1.109375l-0.96875 1.03125q-1.328125 -1.15625 -3.078125 -1.15625q-1.109375 0 -1.84375 0.484375q-0.734375 0.484375 -0.734375 1.421875q0 0.5625 0.296875 0.953125q0.3125 0.390625 1.0 0.734375q0.6875 0.328125 1.9375 0.6875q1.8125 0.515625 2.78125 1.359375q0.984375 0.84375 0.984375 2.5zm9.521881 -6.46875q0.828125 0 1.359375 0.59375q0.546875 0.578125 0.546875 2.125l0 7.3125l-1.4375 0l0 -7.046875q0 -1.03125 -0.140625 -1.390625q-0.125 -0.375 -0.625 -0.375q-0.953125 0 -1.71875 1.1875l0 7.625l-1.453125 0l0 -7.046875q0 -1.03125 -0.140625 -1.390625q-0.125 -0.375 -0.625 -0.375q-0.953125 0 -1.71875 1.1875l0 7.625l-1.4375 0l0 -9.828125l1.21875 0l0.109375 1.15625q0.4375 -0.65625 0.9375 -1.0q0.5 -0.359375 1.1875 -0.359375q1.375 0 1.765625 1.296875q0.453125 -0.625 0.953125 -0.953125q0.5 -0.34375 1.21875 -0.34375zm11.771881 7.890625q0 0.578125 0.1875 0.84375q0.1875 0.265625 0.609375 0.40625l-0.390625 1.109375q-1.4375 -0.1875 -1.796875 -1.390625q-0.515625 0.671875 -1.3125 1.03125q-0.796875 0.34375 -1.765625 0.34375q-1.46875 0 -2.328125 -0.8125q-0.84375 -0.828125 -0.84375 -2.203125q0 -1.515625 1.1875 -2.328125q1.1875 -0.828125 3.40625 -0.828125l1.453125 0l0 -0.796875q0 -1.046875 -0.59375 -1.5q-0.59375 -0.46875 -1.734375 -0.46875q-1.125 0 -2.5625 0.5l-0.421875 -1.1875q1.734375 -0.609375 3.234375 -0.609375q1.78125 0 2.71875 0.84375q0.953125 0.828125 0.953125 2.328125l0 4.71875zm-4.078125 1.171875q0.734375 0 1.390625 -0.375q0.671875 -0.375 1.09375 -1.03125l0 -2.515625l-1.421875 0q-1.5625 0 -2.25 0.53125q-0.6875 0.515625 -0.6875 1.53125q0 1.859375 1.875 1.859375zm14.850006 -9.0625q0.609375 0 1.390625 0.203125l-0.234375 3.328125l-1.265625 0l0 -2.09375l-0.09375 0q-2.265625 0 -3.21875 3.234375l0 4.140625l2.0 0l0 1.21875l-5.125 0l0 -1.21875l1.546875 0l0 -7.40625l-1.546875 0l0 -1.203125l2.734375 0l0.296875 2.328125q0.59375 -1.265625 1.421875 -1.890625q0.828125 -0.640625 2.09375 -0.640625zm12.381256 9.53125q-0.515625 0.328125 -1.234375 0.515625q-0.703125 0.1875 -1.421875 0.1875q-1.546875 0 -2.421875 -0.8125q-0.875 -0.8125 -0.875 -2.140625l0 -5.84375l-2.265625 0l0 -1.234375l2.265625 0l0 -2.21875l1.5625 -0.1875l0 2.40625l3.421875 0l-0.21875 1.234375l-3.203125 0l0 5.828125q0 0.84375 0.4375 1.265625q0.453125 0.40625 1.453125 0.40625q1.0 0 1.875 -0.46875l0.625 1.0625zm11.896881 -8.40625q0 2.15625 -1.328125 3.140625q-1.3125 0.984375 -3.640625 0.984375l-1.65625 0l0 4.78125l-1.59375 0l0 -12.859375l3.25 0q2.375 0 3.671875 1.0q1.296875 0.984375 1.296875 2.953125zm-1.734375 0.03125q0 -1.40625 -0.8125 -2.046875q-0.8125 -0.640625 -2.203125 -0.640625l-1.875 0l0 5.5l1.8125 0q1.453125 0 2.265625 -0.625q0.8125 -0.640625 0.8125 -2.1875zm8.240631 6.453125q0 1.328125 1.625 1.328125q0.765625 0 1.640625 -0.34375l0.421875 1.140625q-0.9375 0.5 -2.34375 0.5q-1.3125 0 -2.109375 -0.71875q-0.796875 -0.734375 -0.796875 -1.984375l0 -10.03125l-3.015625 0l0 -1.25l4.578125 0l0 11.359375zm8.928131 -0.4375q0 0.953125 0.390625 1.390625q0.40625 0.4375 1.265625 0.4375q0.78125 0 1.5 -0.4375q0.734375 -0.453125 1.171875 -1.125l0 -7.234375l1.5625 0l0 9.828125l-1.34375 0l-0.125 -1.328125q-0.578125 0.734375 -1.4375 1.140625q-0.84375 0.390625 -1.71875 0.390625q-1.40625 0 -2.125 -0.734375q-0.71875 -0.75 -0.71875 -2.15625l0 -7.140625l1.578125 0l0 6.96875zm18.084381 -6.53125q-0.546875 0.1875 -1.203125 0.234375q-0.65625 0.046875 -1.65625 0.046875q1.703125 0.78125 1.703125 2.484375q0 1.5 -0.984375 2.421875q-0.984375 0.921875 -2.703125 0.921875q-0.875 0 -1.46875 -0.203125q-0.234375 0.15625 -0.375 0.421875q-0.140625 0.265625 -0.140625 0.53125q0 0.828125 1.3125 0.828125l1.765625 0q0.984375 0 1.765625 0.359375q0.796875 0.34375 1.25 0.953125q0.46875 0.609375 0.46875 1.359375q0 1.4375 -1.234375 2.203125q-1.21875 0.78125 -3.453125 0.78125q-2.28125 0 -3.21875 -0.71875q-0.921875 -0.703125 -0.921875 -2.25l1.421875 0q0 0.625 0.21875 0.984375q0.234375 0.359375 0.828125 0.53125q0.59375 0.1875 1.671875 0.1875q1.578125 0 2.328125 -0.421875q0.765625 -0.40625 0.765625 -1.203125q0 -0.671875 -0.625 -1.03125q-0.609375 -0.359375 -1.578125 -0.359375l-1.75 0q-1.21875 0 -1.859375 -0.53125q-0.625 -0.546875 -0.625 -1.34375q0 -0.46875 0.28125 -0.921875q0.28125 -0.453125 0.796875 -0.796875q-0.828125 -0.421875 -1.234375 -1.078125q-0.40625 -0.671875 -0.40625 -1.625q0 -0.984375 0.5 -1.75q0.5 -0.78125 1.375 -1.21875q0.890625 -0.4375 2.046875 -0.4375q1.6875 0 2.5625 -0.1875q0.875 -0.1875 1.921875 -0.640625l0.453125 1.46875zm-4.953125 0.515625q-1.140625 0 -1.71875 0.609375q-0.578125 0.59375 -0.578125 1.640625q0 1.046875 0.578125 1.671875q0.59375 0.625 1.75 0.625q1.046875 0 1.59375 -0.609375q0.5625 -0.609375 0.5625 -1.703125q0 -2.234375 -2.1875 -2.234375zm11.037506 7.796875q1.125 0 1.78125 -0.421875q0.65625 -0.4375 0.65625 -1.15625q0 -0.484375 -0.171875 -0.78125q-0.171875 -0.3125 -0.671875 -0.5625q-0.5 -0.25 -1.53125 -0.515625q-1.71875 -0.421875 -2.546875 -1.03125q-0.8125 -0.609375 -0.8125 -1.796875q0 -1.234375 1.015625 -1.953125q1.03125 -0.734375 2.71875 -0.734375q2.046875 0 3.578125 1.078125l-0.703125 1.078125q-0.625 -0.421875 -1.296875 -0.65625q-0.671875 -0.234375 -1.546875 -0.234375q-2.125 0 -2.125 1.28125q0 0.453125 0.234375 0.734375q0.234375 0.28125 0.765625 0.5q0.53125 0.203125 1.59375 0.5q1.609375 0.4375 2.390625 1.09375q0.796875 0.65625 0.796875 1.9375q0 1.46875 -1.203125 2.203125q-1.1875 0.71875 -2.921875 0.71875q-2.3125 0 -3.84375 -1.328125l0.875 -1.015625q0.609375 0.484375 1.375 0.78125q0.765625 0.28125 1.59375 0.28125z" fill-rule="nonzero"/><path fill="#9cafb7" d="m101.88189 384.0l725.4173 0l0 51.118103l-725.4173 0z" fill-rule="evenodd"/><path stroke="#000000" stroke-width="1.0" stroke-linejoin="round" stroke-linecap="butt" stroke-dasharray="1.0,3.0" d="m101.88189 384.0l725.4173 0l0 51.118103l-725.4173 0z" fill-rule="evenodd"/><path fill="#000000" d="m452.84366 416.47906l-1.578125 0l-0.390625 -6.71875q-0.109375 -1.765625 -0.109375 -4.640625l-2.15625 9.046875l-1.625 0l-2.3125 -9.046875q0.03125 0.671875 0.03125 1.78125q0 1.71875 -0.078125 2.859375l-0.328125 6.71875l-1.53125 0l0.71875 -12.859375l2.265625 0l2.09375 8.8125l1.984375 -8.8125l2.28125 0l0.734375 12.859375zm10.881256 -6.421875q0 2.171875 -0.625 3.65625q-0.625 1.484375 -2.03125 2.265625q1.375 0.28125 2.140625 0.96875q0.78125 0.6875 1.25 2.09375l-1.71875 0.671875q-0.625 -1.59375 -1.484375 -2.328125q-0.859375 -0.71875 -2.453125 -0.71875q-1.453125 0 -2.484375 -0.8125q-1.015625 -0.8125 -1.546875 -2.296875q-0.53125 -1.484375 -0.53125 -3.484375q0 -1.953125 0.53125 -3.453125q0.546875 -1.515625 1.609375 -2.359375q1.078125 -0.84375 2.609375 -0.84375q2.28125 0 3.5 1.8125q1.234375 1.796875 1.234375 4.828125zm-1.6875 0q0 -2.625 -0.734375 -3.953125q-0.71875 -1.328125 -2.3125 -1.328125q-1.578125 0 -2.328125 1.34375q-0.734375 1.328125 -0.734375 3.953125q0 2.625 0.75 3.9375q0.75 1.3125 2.3125 1.3125q1.59375 0 2.3125 -1.3125q0.734375 -1.3125 0.734375 -3.953125zm8.928131 6.421875l-1.625 0l0 -11.453125l-4.0 0l0 -1.40625l9.671875 0l-0.15625 1.40625l-3.890625 0l0 11.453125zm11.193756 0l-1.625 0l0 -11.453125l-4.0 0l0 -1.40625l9.671875 0l-0.15625 1.40625l-3.890625 0l0 11.453125z" fill-rule="nonzero"/><path fill="#86bbd8" d="m539.6732 497.0l136.37799 0l0 51.118103l-136.37799 0z" fill-rule="evenodd"/><path stroke="#000000" stroke-width="1.0" stroke-linejoin="round" stroke-linecap="butt" d="m539.6732 497.0l136.37799 0l0 51.118103l-136.37799 0z" fill-rule="evenodd"/><path fill="#000000" d="m587.54663 517.04156q0 -0.6875 0.46875 -1.15625q0.484375 -0.484375 1.171875 -0.484375q0.703125 0 1.171875 0.484375q0.46875 0.46875 0.46875 1.15625q0 0.703125 -0.46875 1.171875q-0.46875 0.46875 -1.171875 0.46875q-0.6875 0 -1.171875 -0.46875q-0.46875 -0.484375 -0.46875 -1.171875zm11.193787 0q0 -0.6875 0.46875 -1.15625q0.484375 -0.484375 1.171875 -0.484375q0.703125 0 1.171875 0.484375q0.46875 0.46875 0.46875 1.15625q0 0.703125 -0.46875 1.171875q-0.46875 0.46875 -1.171875 0.46875q-0.6875 0 -1.171875 -0.46875q-0.46875 -0.484375 -0.46875 -1.171875zm11.193726 0q0 -0.6875 0.46875 -1.15625q0.484375 -0.484375 1.171875 -0.484375q0.703125 0 1.171875 0.484375q0.46875 0.46875 0.46875 1.15625q0 0.703125 -0.46875 1.171875q-0.46875 0.46875 -1.171875 0.46875q-0.6875 0 -1.171875 -0.46875q-0.46875 -0.484375 -0.46875 -1.171875z" fill-rule="nonzero"/><path fill="#000000" d="m621.2529 506.97906l1.890625 -0.78125l0.3125 0.984375l-1.96875 0.453125l1.375 1.5l-0.84375 0.640625l-1.078125 -1.734375l-1.015625 1.765625l-0.875 -0.59375l1.3125 -1.578125l-1.984375 -0.453125l0.3125 -0.984375l1.890625 0.78125l-0.1875 -2.046875l1.046875 0l-0.1875 2.046875zm6.7436523 -4.203125q0.78125 0 1.375 0.296875q0.609375 0.28125 0.921875 0.78125q0.328125 0.484375 0.328125 1.078125q0 0.734375 -0.484375 1.296875q-0.484375 0.546875 -1.1875 0.6875q0.8125 0.0625 1.375 0.609375q0.578125 0.546875 0.578125 1.484375q0 0.734375 -0.375 1.34375q-0.375 0.59375 -1.0625 0.9375q-0.671875 0.328125 -1.546875 0.328125q-0.75 0 -1.453125 -0.28125q-0.703125 -0.296875 -1.171875 -0.859375l0.703125 -0.5625q0.34375 0.40625 0.84375 0.625q0.515625 0.21875 1.0625 0.21875q0.890625 0 1.390625 -0.46875q0.515625 -0.46875 0.515625 -1.28125q0 -1.625 -1.78125 -1.625l-0.71875 0l0.125 -0.828125l0.515625 0q0.671875 0 1.140625 -0.375q0.46875 -0.390625 0.46875 -1.125q0 -0.6875 -0.453125 -1.0625q-0.453125 -0.375 -1.15625 -0.375q-0.53125 0 -0.953125 0.1875q-0.421875 0.1875 -0.859375 0.59375l-0.578125 -0.640625q1.046875 -0.984375 2.4375 -0.984375z" fill-rule="nonzero"/><path fill="#000000" d="m582.8778 537.1978l-1.015625 3.28125l-1.609375 0l4.203125 -12.859375l2.046875 0l4.171875 12.859375l-1.671875 0l-1.03125 -3.28125l-5.09375 0zm4.671875 -1.34375l-2.109375 -6.84375l-2.125 6.84375l4.234375 0zm13.850037 -4.765625q-0.546875 0.1875 -1.203125 0.234375q-0.65625 0.046875 -1.65625 0.046875q1.703125 0.78125 1.703125 2.484375q0 1.5 -0.984375 2.421875q-0.984375 0.921875 -2.703125 0.921875q-0.875 0 -1.46875 -0.203125q-0.234375 0.15625 -0.375 0.421875q-0.140625 0.265625 -0.140625 0.53125q0 0.828125 1.3125 0.828125l1.765625 0q0.984375 0 1.765625 0.359375q0.796875 0.34375 1.25 0.953125q0.46875 0.609375 0.46875 1.359375q0 1.4375 -1.234375 2.203125q-1.21875 0.78125 -3.453125 0.78125q-2.28125 0 -3.21875 -0.71875q-0.921875 -0.703125 -0.921875 -2.25l1.421875 0q0 0.625 0.21875 0.984375q0.234375 0.359375 0.828125 0.53125q0.59375 0.1875 1.671875 0.1875q1.578125 0 2.328125 -0.421875q0.765625 -0.40625 0.765625 -1.203125q0 -0.671875 -0.625 -1.03125q-0.609375 -0.359375 -1.578125 -0.359375l-1.75 0q-1.21875 0 -1.859375 -0.53125q-0.625 -0.546875 -0.625 -1.34375q0 -0.46875 0.28125 -0.921875q0.28125 -0.453125 0.796875 -0.796875q-0.828125 -0.421875 -1.234375 -1.078125q-0.40625 -0.671875 -0.40625 -1.625q0 -0.984375 0.5 -1.75q0.5 -0.78125 1.375 -1.21875q0.890625 -0.4375 2.046875 -0.4375q1.6875 0 2.5625 -0.1875q0.875 -0.1875 1.921875 -0.640625l0.453125 1.46875zm-4.953125 0.515625q-1.140625 0 -1.71875 0.609375q-0.578125 0.59375 -0.578125 1.640625q0 1.046875 0.578125 1.671875q0.59375 0.625 1.75 0.625q1.046875 0 1.59375 -0.609375q0.5625 -0.609375 0.5625 -1.703125q0 -2.234375 -2.1875 -2.234375zm8.928101 4.515625q0.0625 1.609375 0.84375 2.4375q0.796875 0.828125 2.015625 0.828125q0.734375 0 1.328125 -0.21875q0.609375 -0.21875 1.296875 -0.671875l0.734375 1.046875q-0.6875 0.546875 -1.578125 0.84375q-0.890625 0.296875 -1.78125 0.296875q-2.125 0 -3.3125 -1.390625q-1.1875 -1.390625 -1.1875 -3.71875q0 -1.46875 0.515625 -2.640625q0.53125 -1.171875 1.5 -1.828125q0.96875 -0.65625 2.265625 -0.65625q1.859375 0 2.921875 1.296875q1.078125 1.296875 1.078125 3.53125q0 0.421875 -0.03125 0.84375l-6.609375 0zm2.65625 -4.390625q-1.140625 0 -1.859375 0.8125q-0.703125 0.8125 -0.796875 2.375l5.125 0q-0.03125 -1.546875 -0.6875 -2.359375q-0.640625 -0.828125 -1.78125 -0.828125zm7.2875366 -1.078125l1.34375 0l0.140625 1.375q0.578125 -0.75 1.453125 -1.15625q0.890625 -0.421875 1.78125 -0.421875q2.765625 0 2.765625 2.90625l0 7.125l-1.5625 0l0 -5.96875q0 -1.109375 -0.125 -1.6875q-0.125 -0.578125 -0.484375 -0.84375q-0.34375 -0.28125 -1.078125 -0.28125q-0.796875 0 -1.515625 0.484375q-0.703125 0.484375 -1.140625 1.15625l0 7.140625l-1.578125 0l0 -9.828125zm19.02185 9.328125q-0.515625 0.328125 -1.234375 0.515625q-0.703125 0.1875 -1.421875 0.1875q-1.546875 0 -2.421875 -0.8125q-0.875 -0.8125 -0.875 -2.140625l0 -5.84375l-2.265625 0l0 -1.234375l2.265625 0l0 -2.21875l1.5625 -0.1875l0 2.40625l3.421875 0l-0.21875 1.234375l-3.203125 0l0 5.828125q0 0.84375 0.4375 1.265625q0.453125 0.40625 1.453125 0.40625q1.0 0 1.875 -0.46875l0.625 1.0625z" fill-rule="nonzero"/><path fill="#979fd8" d="m539.6732 614.13385l136.37799 0l0 51.118103l-136.37799 0z" fill-rule="evenodd"/><path stroke="#000000" stroke-width="1.0" stroke-linejoin="round" stroke-linecap="butt" stroke-dasharray="4.0,3.0" d="m539.6732 614.13385l136.37799 0l0 51.118103l-136.37799 0z" fill-rule="evenodd"/><path fill="#000000" d="m587.54663 634.1754q0 -0.6875 0.46875 -1.15625q0.484375 -0.484375 1.171875 -0.484375q0.703125 0 1.171875 0.484375q0.46875 0.46875 0.46875 1.15625q0 0.703125 -0.46875 1.171875q-0.46875 0.46875 -1.171875 0.46875q-0.6875 0 -1.171875 -0.46875q-0.46875 -0.484375 -0.46875 -1.171875zm11.193787 0q0 -0.6875 0.46875 -1.15625q0.484375 -0.484375 1.171875 -0.484375q0.703125 0 1.171875 0.484375q0.46875 0.46875 0.46875 1.15625q0 0.703125 -0.46875 1.171875q-0.46875 0.46875 -1.171875 0.46875q-0.6875 0 -1.171875 -0.46875q-0.46875 -0.484375 -0.46875 -1.171875zm11.193726 0q0 -0.6875 0.46875 -1.15625q0.484375 -0.484375 1.171875 -0.484375q0.703125 0 1.171875 0.484375q0.46875 0.46875 0.46875 1.15625q0 0.703125 -0.46875 1.171875q-0.46875 0.46875 -1.171875 0.46875q-0.6875 0 -1.171875 -0.46875q-0.46875 -0.484375 -0.46875 -1.171875z" fill-rule="nonzero"/><path fill="#000000" d="m621.2529 624.1129l1.890625 -0.78125l0.3125 0.984375l-1.96875 0.453125l1.375 1.5l-0.84375 0.640625l-1.078125 -1.734375l-1.015625 1.765625l-0.875 -0.59375l1.3125 -1.578125l-1.984375 -0.453125l0.3125 -0.984375l1.890625 0.78125l-0.1875 -2.046875l1.046875 0l-0.1875 2.046875zm9.962402 2.421875l-1.109375 0l0 2.078125l-1.0 0l0 -2.078125l-3.5625 0l0 -0.765625l2.515625 -5.859375l0.875 0.375l-2.28125 5.40625l2.46875 0l0.078125 -2.421875l0.90625 0l0 2.421875l1.109375 0l0 0.84375z" fill-rule="nonzero"/><path fill="#000000" d="m584.59344 651.1129q0 3.671875 -1.6875 5.09375q-1.671875 1.40625 -4.125 1.40625l-2.953125 0l0 -12.859375l2.75 0q2.703125 0 4.359375 1.375q1.65625 1.359375 1.65625 4.984375zm-1.734375 0q0 -2.078125 -0.578125 -3.1875q-0.5625 -1.109375 -1.40625 -1.46875q-0.828125 -0.375 -1.90625 -0.375l-1.515625 0l0 10.21875l1.53125 0q1.65625 0 2.765625 -1.140625q1.109375 -1.140625 1.109375 -4.046875zm5.7249756 2.140625q0.0625 1.609375 0.84375 2.4375q0.796875 0.828125 2.015625 0.828125q0.734375 0 1.328125 -0.21875q0.609375 -0.21875 1.296875 -0.671875l0.734375 1.046875q-0.6875 0.546875 -1.578125 0.84375q-0.890625 0.296875 -1.78125 0.296875q-2.125 0 -3.3125 -1.390625q-1.1875 -1.390625 -1.1875 -3.71875q0 -1.46875 0.515625 -2.640625q0.53125 -1.171875 1.5 -1.828125q0.96875 -0.65625 2.265625 -0.65625q1.859375 0 2.921875 1.296875q1.078125 1.296875 1.078125 3.53125q0 0.421875 -0.03125 0.84375l-6.609375 0zm2.65625 -4.390625q-1.140625 0 -1.859375 0.8125q-0.703125 0.8125 -0.796875 2.375l5.125 0q-0.03125 -1.546875 -0.6875 -2.359375q-0.640625 -0.828125 -1.78125 -0.828125zm11.928162 8.75l-1.8125 0l-3.5625 -9.828125l1.671875 0l2.84375 8.40625l2.796875 -8.40625l1.640625 0l-3.578125 9.828125zm10.287476 -14.421875q0.53125 0 0.84375 0.3125q0.3125 0.296875 0.3125 0.78125q0 0.5 -0.3125 0.8125q-0.3125 0.296875 -0.84375 0.296875q-0.5 0 -0.8125 -0.296875q-0.296875 -0.3125 -0.296875 -0.8125q0 -0.484375 0.296875 -0.78125q0.3125 -0.3125 0.8125 -0.3125zm1.25 13.171875l2.765625 0l0 1.25l-7.359375 0l0 -1.25l3.03125 0l0 -7.328125l-2.9375 0l0 -1.25l4.5 0l0 8.578125zm10.678162 0.109375q1.28125 0 2.546875 -0.859375l0.75 1.03125q-0.609375 0.546875 -1.53125 0.859375q-0.90625 0.3125 -1.765625 0.3125q-2.1875 0 -3.40625 -1.359375q-1.21875 -1.375 -1.21875 -3.71875q0 -1.46875 0.546875 -2.640625q0.546875 -1.171875 1.59375 -1.84375q1.046875 -0.671875 2.484375 -0.671875q1.90625 0 3.28125 1.15625l-0.765625 1.015625q-1.28125 -0.859375 -2.53125 -0.859375q-1.328125 0 -2.125 0.984375q-0.796875 0.984375 -0.796875 2.859375q0 1.890625 0.796875 2.8125q0.796875 0.921875 2.140625 0.921875zm7.9749756 -3.21875q0.0625 1.609375 0.84375 2.4375q0.796875 0.828125 2.015625 0.828125q0.734375 0 1.328125 -0.21875q0.609375 -0.21875 1.296875 -0.671875l0.734375 1.046875q-0.6875 0.546875 -1.578125 0.84375q-0.890625 0.296875 -1.78125 0.296875q-2.125 0 -3.3125 -1.390625q-1.1875 -1.390625 -1.1875 -3.71875q0 -1.46875 0.515625 -2.640625q0.53125 -1.171875 1.5 -1.828125q0.96875 -0.65625 2.265625 -0.65625q1.859375 0 2.921875 1.296875q1.078125 1.296875 1.078125 3.53125q0 0.421875 -0.03125 0.84375l-6.609375 0zm2.65625 -4.390625q-1.140625 0 -1.859375 0.8125q-0.703125 0.8125 -0.796875 2.375l5.125 0q-0.03125 -1.546875 -0.6875 -2.359375q-0.640625 -0.828125 -1.78125 -0.828125z" fill-rule="nonzero"/><path fill="#000000" fill-opacity="0.0" d="m607.8307 435.61285l0 28.374542l0.06298828 0l0 28.381378" fill-rule="evenodd"/><path stroke="#000000" stroke-width="1.0" stroke-linejoin="round" stroke-linecap="butt" d="m607.8307 441.61285l0 22.374542l0.06298828 0l0 22.381378" fill-rule="evenodd"/><path fill="#000000" stroke="#000000" stroke-width="1.0" stroke-linecap="butt" d="m609.4824 441.61285l-1.6517334 -4.538086l-1.6517334 4.538086z" fill-rule="evenodd"/><path fill="#000000" stroke="#000000" stroke-width="1.0" stroke-linecap="butt" d="m606.24194 486.36877l1.6517334 4.538086l1.6517334 -4.538086z" fill-rule="evenodd"/><path fill="#000000" fill-opacity="0.0" d="m607.8307 552.7467l0 28.374573l0.06298828 0l0 28.381348" fill-rule="evenodd"/><path stroke="#000000" stroke-width="1.0" stroke-linejoin="round" stroke-linecap="butt" d="m607.8307 558.7467l0 22.374573l0.06298828 0l0 22.381348" fill-rule="evenodd"/><path fill="#000000" stroke="#000000" stroke-width="1.0" stroke-linecap="butt" d="m609.4824 558.7467l-1.6517334 -4.538086l-1.6517334 4.538086z" fill-rule="evenodd"/><path fill="#000000" stroke="#000000" stroke-width="1.0" stroke-linecap="butt" d="m606.24194 603.5026l1.6517334 4.538086l1.6517334 -4.538086z" fill-rule="evenodd"/><path fill="#000000" fill-opacity="0.0" d="m411.51575 435.61285l0 28.374542l0.06298828 0l0 28.381378" fill-rule="evenodd"/><path stroke="#000000" stroke-width="1.0" stroke-linejoin="round" stroke-linecap="butt" d="m411.51575 441.61285l0 22.374542l0.06298828 0l0 28.381378" fill-rule="evenodd"/><path fill="#000000" stroke="#000000" stroke-width="1.0" stroke-linecap="butt" d="m413.16748 441.61285l-1.6517334 -4.538086l-1.6517334 4.538086z" fill-rule="evenodd"/><path fill="#000000" fill-opacity="0.0" d="m411.48425 552.7467l0 28.374573l0.06298828 0l0 28.381348" fill-rule="evenodd"/><path stroke="#000000" stroke-width="1.0" stroke-linejoin="round" stroke-linecap="butt" d="m411.48425 558.7467l0 22.374573l0.06298828 0l0 28.381348" fill-rule="evenodd"/><path fill="#000000" stroke="#000000" stroke-width="1.0" stroke-linecap="butt" d="m413.136 558.7467l-1.6517334 -4.538086l-1.6517334 4.538086z" fill-rule="evenodd"/><path fill="#000000" fill-opacity="0.0" d="m215.20079 435.61285l0 28.374542l0.06298828 0l0 28.381378" fill-rule="evenodd"/><path stroke="#ff9900" stroke-width="1.0" stroke-linejoin="round" stroke-linecap="butt" d="m215.20079 435.61285l0 28.374542l0.06298828 0l0 22.381378" fill-rule="evenodd"/><path fill="#ff9900" stroke="#ff9900" stroke-width="1.0" stroke-linecap="butt" d="m213.61205 486.36877l1.6517334 4.538086l1.6517334 -4.538086z" fill-rule="evenodd"/><path fill="#000000" fill-opacity="0.0" d="m215.1378 552.7467l0 28.374573l0.06298828 0l0 28.381348" fill-rule="evenodd"/><path stroke="#ff9900" stroke-width="1.0" stroke-linejoin="round" stroke-linecap="butt" d="m215.1378 552.7467l0 28.374573l0.06298828 0l0 22.381348" fill-rule="evenodd"/><path fill="#ff9900" stroke="#ff9900" stroke-width="1.0" stroke-linecap="butt" d="m213.54906 603.5026l1.6517334 4.538086l1.6517334 -4.538086z" fill-rule="evenodd"/><path fill="#000000" fill-opacity="0.0" d="m411.4147 218.87665l0 28.374542l0.06298828 0l0 28.381348" fill-rule="evenodd"/><path stroke="#000000" stroke-width="1.0" stroke-linejoin="round" stroke-linecap="butt" d="m411.4147 224.87665l0 22.374542l0.06298828 0l0 28.381348" fill-rule="evenodd"/><path fill="#000000" stroke="#000000" stroke-width="1.0" stroke-linecap="butt" d="m413.06644 224.87663l-1.6517334 -4.538086l-1.6517334 4.538086z" fill-rule="evenodd"/><path fill="#e6b89c" d="m509.63647 167.76378l104.944885 0l0 51.11812l-104.944885 0z" fill-rule="evenodd"/><path stroke="#000000" stroke-width="1.0" stroke-linejoin="round" stroke-linecap="butt" d="m509.63647 167.76378l104.944885 0l0 51.11812l-104.944885 0z" fill-rule="evenodd"/><path fill="#000000" d="m537.1245 185.96158l-1.015625 3.28125l-1.609375 0l4.203125 -12.859375l2.046875 0l4.171875 12.859375l-1.671875 0l-1.03125 -3.28125l-5.09375 0zm4.671875 -1.34375l-2.109375 -6.84375l-2.125 6.84375l4.234375 0zm9.225037 2.203125q0 1.328125 1.625 1.328125q0.765625 0 1.640625 -0.34375l0.421875 1.140625q-0.9375 0.5 -2.34375 0.5q-1.3125 0 -2.109375 -0.71875q-0.796875 -0.734375 -0.796875 -1.984375l0 -10.03125l-3.015625 0l0 -1.25l4.578125 0l0 11.359375zm8.599976 -1.9375q0.0625 1.609375 0.84375 2.4375q0.796875 0.828125 2.015625 0.828125q0.734375 0 1.328125 -0.21875q0.609375 -0.21875 1.296875 -0.671875l0.734375 1.046875q-0.6875 0.546875 -1.578125 0.84375q-0.890625 0.296875 -1.78125 0.296875q-2.125 0 -3.3125 -1.390625q-1.1875 -1.390625 -1.1875 -3.71875q0 -1.46875 0.515625 -2.640625q0.53125 -1.171875 1.5 -1.828125q0.96875 -0.65625 2.265625 -0.65625q1.859375 0 2.921875 1.296875q1.078125 1.296875 1.078125 3.53125q0 0.421875 -0.03125 0.84375l-6.609375 0zm2.65625 -4.390625q-1.140625 0 -1.859375 0.8125q-0.703125 0.8125 -0.796875 2.375l5.125 0q-0.03125 -1.546875 -0.6875 -2.359375q-0.640625 -0.828125 -1.78125 -0.828125zm13.928162 -1.28125q0.609375 0 1.390625 0.203125l-0.234375 3.328125l-1.265625 0l0 -2.09375l-0.09375 0q-2.265625 0 -3.21875 3.234375l0 4.140625l2.0 0l0 1.21875l-5.125 0l0 -1.21875l1.546875 0l0 -7.40625l-1.546875 0l0 -1.203125l2.734375 0l0.296875 2.328125q0.59375 -1.265625 1.421875 -1.890625q0.828125 -0.640625 2.09375 -0.640625zm12.381226 9.53125q-0.515625 0.328125 -1.234375 0.515625q-0.703125 0.1875 -1.421875 0.1875q-1.546875 0 -2.421875 -0.8125q-0.875 -0.8125 -0.875 -2.140625l0 -5.84375l-2.265625 0l0 -1.234375l2.265625 0l0 -2.21875l1.5625 -0.1875l0 2.40625l3.421875 0l-0.21875 1.234375l-3.203125 0l0 5.828125q0 0.84375 0.4375 1.265625q0.453125 0.40625 1.453125 0.40625q1.0 0 1.875 -0.46875l0.625 1.0625z" fill-rule="nonzero"/><path fill="#000000" d="m538.5433 207.68033q0 1.125 -0.5625 1.96875q-0.546875 0.84375 -1.625 1.328125q-1.0625 0.46875 -2.515625 0.46875q-1.390625 0 -2.546875 -0.421875q-1.140625 -0.421875 -1.96875 -1.203125l0.96875 -1.09375q0.71875 0.671875 1.578125 1.03125q0.875 0.34375 1.984375 0.34375q1.28125 0 2.140625 -0.609375q0.859375 -0.625 0.859375 -1.78125q0 -0.640625 -0.25 -1.0625q-0.25 -0.4375 -0.859375 -0.765625q-0.59375 -0.34375 -1.703125 -0.671875q-2.078125 -0.609375 -3.109375 -1.4375q-1.03125 -0.828125 -1.03125 -2.265625q0 -0.953125 0.515625 -1.71875q0.53125 -0.765625 1.484375 -1.1875q0.953125 -0.421875 2.171875 -0.421875q1.265625 0 2.265625 0.375q1.0 0.375 1.828125 1.109375l-0.96875 1.03125q-1.328125 -1.15625 -3.078125 -1.15625q-1.109375 0 -1.84375 0.484375q-0.734375 0.484375 -0.734375 1.421875q0 0.5625 0.296875 0.953125q0.3125 0.390625 1.0 0.734375q0.6875 0.328125 1.9375 0.6875q1.8125 0.515625 2.78125 1.359375q0.984375 0.84375 0.984375 2.5zm7.7875366 3.625q-0.578125 1.6875 -1.59375 2.6875q-1.0 1.015625 -2.8125 1.203125l-0.21875 -1.25q0.984375 -0.171875 1.5625 -0.515625q0.59375 -0.34375 0.921875 -0.859375q0.34375 -0.5 0.625 -1.328125l-0.515625 0l-3.421875 -9.828125l1.65625 0l2.828125 8.640625l2.765625 -8.640625l1.625 0l-3.421875 9.890625zm9.803101 -1.140625q1.125 0 1.78125 -0.421875q0.65625 -0.4375 0.65625 -1.15625q0 -0.484375 -0.171875 -0.78125q-0.171875 -0.3125 -0.671875 -0.5625q-0.5 -0.25 -1.53125 -0.515625q-1.71875 -0.421875 -2.546875 -1.03125q-0.8125 -0.609375 -0.8125 -1.796875q0 -1.234375 1.015625 -1.953125q1.03125 -0.734375 2.71875 -0.734375q2.046875 0 3.578125 1.078125l-0.703125 1.078125q-0.625 -0.421875 -1.296875 -0.65625q-0.671875 -0.234375 -1.546875 -0.234375q-2.125 0 -2.125 1.28125q0 0.453125 0.234375 0.734375q0.234375 0.28125 0.765625 0.5q0.53125 0.203125 1.59375 0.5q1.609375 0.4375 2.390625 1.09375q0.796875 0.65625 0.796875 1.9375q0 1.46875 -1.203125 2.203125q-1.1875 0.71875 -2.921875 0.71875q-2.3125 0 -3.84375 -1.328125l0.875 -1.015625q0.609375 0.484375 1.375 0.78125q0.765625 0.28125 1.59375 0.28125zm15.662537 0.578125q-0.515625 0.328125 -1.234375 0.515625q-0.703125 0.1875 -1.421875 0.1875q-1.546875 0 -2.421875 -0.8125q-0.875 -0.8125 -0.875 -2.140625l0 -5.84375l-2.265625 0l0 -1.234375l2.265625 0l0 -2.21875l1.5625 -0.1875l0 2.40625l3.421875 0l-0.21875 1.234375l-3.203125 0l0 5.828125q0 0.84375 0.4375 1.265625q0.453125 0.40625 1.453125 0.40625q1.0 0 1.875 -0.46875l0.625 1.0625zm4.6156006 -3.859375q0.0625 1.609375 0.84375 2.4375q0.796875 0.828125 2.015625 0.828125q0.734375 0 1.328125 -0.21875q0.609375 -0.21875 1.296875 -0.671875l0.734375 1.046875q-0.6875 0.546875 -1.578125 0.84375q-0.890625 0.296875 -1.78125 0.296875q-2.125 0 -3.3125 -1.390625q-1.1875 -1.390625 -1.1875 -3.71875q0 -1.46875 0.515625 -2.640625q0.53125 -1.171875 1.5 -1.828125q0.96875 -0.65625 2.265625 -0.65625q1.859375 0 2.921875 1.296875q1.078125 1.296875 1.078125 3.53125q0 0.421875 -0.03125 0.84375l-6.609375 0zm2.65625 -4.390625q-1.140625 0 -1.859375 0.8125q-0.703125 0.8125 -0.796875 2.375l5.125 0q-0.03125 -1.546875 -0.6875 -2.359375q-0.640625 -0.828125 -1.78125 -0.828125zm13.771912 -1.28125q0.828125 0 1.359375 0.59375q0.546875 0.578125 0.546875 2.125l0 7.3125l-1.4375 0l0 -7.046875q0 -1.03125 -0.140625 -1.390625q-0.125 -0.375 -0.625 -0.375q-0.953125 0 -1.71875 1.1875l0 7.625l-1.453125 0l0 -7.046875q0 -1.03125 -0.140625 -1.390625q-0.125 -0.375 -0.625 -0.375q-0.953125 0 -1.71875 1.1875l0 7.625l-1.4375 0l0 -9.828125l1.21875 0l0.109375 1.15625q0.4375 -0.65625 0.9375 -1.0q0.5 -0.359375 1.1875 -0.359375q1.375 0 1.765625 1.296875q0.453125 -0.625 0.953125 -0.953125q0.5 -0.34375 1.21875 -0.34375z" fill-rule="nonzero"/><path fill="#000000" fill-opacity="0.0" d="m479.59055 193.32283l15.023041 0l0 0.06300354l15.0242 0" fill-rule="evenodd"/><path stroke="#000000" stroke-width="1.0" stroke-linejoin="round" stroke-linecap="butt" d="m479.59055 193.32283l15.02301 0l0 0.06300354l9.024231 0" fill-rule="evenodd"/><path fill="#000000" stroke="#000000" stroke-width="1.0" stroke-linecap="butt" d="m503.6378 195.03755l4.5381165 -1.6517181l-4.5381165 -1.6517334z" fill-rule="evenodd"/><path fill="#ead2ac" d="m644.2598 276.14172l183.02362 0l0 51.118134l-183.02362 0z" fill-rule="evenodd"/><path stroke="#000000" stroke-width="1.0" stroke-linejoin="round" stroke-linecap="butt" d="m644.2598 276.14172l183.02362 0l0 51.118134l-183.02362 0z" fill-rule="evenodd"/><path fill="#000000" d="m723.3061 296.5583q0 -0.515625 0.359375 -0.875q0.375 -0.375 0.890625 -0.375q0.546875 0 0.90625 0.375q0.359375 0.359375 0.359375 0.875q0 0.546875 -0.359375 0.90625q-0.359375 0.359375 -0.90625 0.359375q-0.515625 0 -0.890625 -0.359375q-0.359375 -0.359375 -0.359375 -0.90625zm3.734375 0q0 -0.515625 0.375 -0.875q0.375 -0.375 0.890625 -0.375q0.53125 0 0.890625 0.375q0.359375 0.359375 0.359375 0.875q0 0.546875 -0.359375 0.90625q-0.359375 0.359375 -0.890625 0.359375q-0.515625 0 -0.890625 -0.375q-0.375 -0.375 -0.375 -0.890625zm3.75 0q0 -0.515625 0.359375 -0.875q0.375 -0.375 0.890625 -0.375q0.546875 0 0.90625 0.375q0.359375 0.359375 0.359375 0.875q0 0.546875 -0.359375 0.90625q-0.359375 0.359375 -0.90625 0.359375q-0.515625 0 -0.890625 -0.359375q-0.359375 -0.359375 -0.359375 -0.90625z" fill-rule="nonzero"/><path fill="#000000" d="m737.9686 286.1208l1.890625 -0.78125l0.3125 0.984375l-1.96875 0.453125l1.375 1.5l-0.84375 0.640625l-1.078125 -1.734375l-1.015625 1.765625l-0.875 -0.59375l1.3125 -1.578125l-1.984375 -0.453125l0.3125 -0.984375l1.890625 0.78125l-0.1875 -2.046875l1.046875 0l-0.1875 2.046875zm6.7436523 -4.203125q0.78125 0 1.375 0.3125q0.59375 0.3125 0.90625 0.859375q0.3125 0.53125 0.3125 1.21875q0 0.796875 -0.375 1.546875q-0.359375 0.734375 -1.171875 1.625q-0.8125 0.890625 -2.28125 2.25l4.015625 0l-0.125 0.890625l-5.09375 0l0 -0.84375q1.6875 -1.609375 2.5 -2.515625q0.8125 -0.90625 1.125 -1.546875q0.3125 -0.65625 0.3125 -1.375q0 -0.71875 -0.421875 -1.125q-0.40625 -0.421875 -1.125 -0.421875q-0.609375 0 -1.015625 0.21875q-0.40625 0.203125 -0.828125 0.6875l-0.71875 -0.546875q0.515625 -0.640625 1.140625 -0.9375q0.625 -0.296875 1.46875 -0.296875z" fill-rule="nonzero"/><path fill="#000000" d="m665.43097 313.52704l-4.84375 0l0 6.09375l-1.625 0l0 -12.859375l1.625 0l0 5.4375l4.84375 0l0 -5.4375l1.625 0l0 12.859375l-1.625 0l0 -6.09375zm8.787537 -3.9375q2.046875 0 3.125 1.375q1.09375 1.359375 1.09375 3.734375q0 2.3125 -1.109375 3.71875q-1.109375 1.40625 -3.125 1.40625q-2.03125 0 -3.140625 -1.359375q-1.09375 -1.375 -1.09375 -3.75q0 -2.328125 1.109375 -3.71875q1.109375 -1.40625 3.140625 -1.40625zm0 1.28125q-1.28125 0 -1.921875 0.953125q-0.625 0.953125 -0.625 2.890625q0 1.9375 0.625 2.890625q0.625 0.9375 1.90625 0.9375q1.296875 0 1.921875 -0.9375q0.625 -0.953125 0.625 -2.90625q0 -1.9375 -0.625 -2.875q-0.625 -0.953125 -1.90625 -0.953125zm11.193726 -1.28125q2.046875 0 3.125 1.375q1.09375 1.359375 1.09375 3.734375q0 2.3125 -1.109375 3.71875q-1.109375 1.40625 -3.125 1.40625q-2.03125 0 -3.140625 -1.359375q-1.09375 -1.375 -1.09375 -3.75q0 -2.328125 1.109375 -3.71875q1.109375 -1.40625 3.140625 -1.40625zm0 1.28125q-1.28125 0 -1.921875 0.953125q-0.625 0.953125 -0.625 2.890625q0 1.9375 0.625 2.890625q0.625 0.9375 1.90625 0.9375q1.296875 0 1.921875 -0.9375q0.625 -0.953125 0.625 -2.90625q0 -1.9375 -0.625 -2.875q-0.625 -0.953125 -1.90625 -0.953125zm9.131287 8.75l-1.5625 0l0 -13.78125l1.5625 -0.1875l0 13.96875zm2.140625 -5.390625l4.921875 5.390625l-2.0625 0l-4.828125 -5.375l4.359375 -4.453125l2.015625 0l-4.40625 4.4375zm6.4906006 6.75l7.96875 -16.453125l1.25 0.59375l-7.953125 16.421875l-1.265625 -0.5625zm16.881287 -14.421875q1.203125 0 2.0625 0.3125q0.859375 0.3125 1.671875 0.9375l-0.90625 1.0625q-1.140625 -0.953125 -2.703125 -0.953125q-1.734375 0 -2.828125 1.265625q-1.09375 1.265625 -1.09375 4.0q0 2.71875 1.0625 4.0q1.0625 1.265625 2.828125 1.265625q0.984375 0 1.671875 -0.28125q0.6875 -0.28125 1.3125 -0.78125l0.84375 1.046875q-1.4375 1.390625 -3.84375 1.390625q-1.578125 0 -2.859375 -0.765625q-1.265625 -0.78125 -2.0 -2.265625q-0.71875 -1.5 -0.71875 -3.609375q0 -2.09375 0.734375 -3.59375q0.75 -1.5 2.0 -2.265625q1.265625 -0.765625 2.765625 -0.765625zm10.131226 3.03125q2.046875 0 3.125 1.375q1.09375 1.359375 1.09375 3.734375q0 2.3125 -1.109375 3.71875q-1.109375 1.40625 -3.125 1.40625q-2.03125 0 -3.140625 -1.359375q-1.09375 -1.375 -1.09375 -3.75q0 -2.328125 1.109375 -3.71875q1.109375 -1.40625 3.140625 -1.40625zm0 1.28125q-1.28125 0 -1.921875 0.953125q-0.625 0.953125 -0.625 2.890625q0 1.9375 0.625 2.890625q0.625 0.9375 1.90625 0.9375q1.296875 0 1.921875 -0.9375q0.625 -0.953125 0.625 -2.90625q0 -1.9375 -0.625 -2.875q-0.625 -0.953125 -1.90625 -0.953125zm13.928162 -1.28125q0.828125 0 1.359375 0.59375q0.546875 0.578125 0.546875 2.125l0 7.3125l-1.4375 0l0 -7.046875q0 -1.03125 -0.140625 -1.390625q-0.125 -0.375 -0.625 -0.375q-0.953125 0 -1.71875 1.1875l0 7.625l-1.453125 0l0 -7.046875q0 -1.03125 -0.140625 -1.390625q-0.125 -0.375 -0.625 -0.375q-0.953125 0 -1.71875 1.1875l0 7.625l-1.4375 0l0 -9.828125l1.21875 0l0.109375 1.15625q0.4375 -0.65625 0.9375 -1.0q0.5 -0.359375 1.1875 -0.359375q1.375 0 1.765625 1.296875q0.453125 -0.625 0.953125 -0.953125q0.5 -0.34375 1.21875 -0.34375zm9.115601 0q3.5625 0 3.5625 5.109375q0 2.328125 -0.96875 3.734375q-0.96875 1.390625 -2.8125 1.390625q-1.609375 0 -2.609375 -1.125l0 4.6875l-1.578125 0.1875l0 -13.78125l1.34375 0l0.140625 1.375q0.53125 -0.765625 1.28125 -1.171875q0.765625 -0.40625 1.640625 -0.40625zm-0.375 1.265625q-0.734375 0 -1.359375 0.453125q-0.625 0.4375 -1.09375 1.109375l0 4.875q0.390625 0.578125 0.96875 0.90625q0.59375 0.328125 1.28125 0.328125q1.234375 0 1.84375 -0.9375q0.609375 -0.953125 0.609375 -2.890625q0 -1.9375 -0.546875 -2.890625q-0.546875 -0.953125 -1.703125 -0.953125zm10.912537 -1.265625q2.046875 0 3.125 1.375q1.09375 1.359375 1.09375 3.734375q0 2.3125 -1.109375 3.71875q-1.109375 1.40625 -3.125 1.40625q-2.03125 0 -3.140625 -1.359375q-1.09375 -1.375 -1.09375 -3.75q0 -2.328125 1.109375 -3.71875q1.109375 -1.40625 3.140625 -1.40625zm0 1.28125q-1.28125 0 -1.921875 0.953125q-0.625 0.953125 -0.625 2.890625q0 1.9375 0.625 2.890625q0.625 0.9375 1.90625 0.9375q1.296875 0 1.921875 -0.9375q0.625 -0.953125 0.625 -2.90625q0 -1.9375 -0.625 -2.875q-0.625 -0.953125 -1.90625 -0.953125zm7.4437256 -1.078125l1.34375 0l0.140625 1.375q0.578125 -0.75 1.453125 -1.15625q0.890625 -0.421875 1.78125 -0.421875q2.765625 0 2.765625 2.90625l0 7.125l-1.5625 0l0 -5.96875q0 -1.109375 -0.125 -1.6875q-0.125 -0.578125 -0.484375 -0.84375q-0.34375 -0.28125 -1.078125 -0.28125q-0.796875 0 -1.515625 0.484375q-0.703125 0.484375 -1.140625 1.15625l0 7.140625l-1.578125 0l0 -9.828125zm12.443787 5.46875q0.0625 1.609375 0.84375 2.4375q0.796875 0.828125 2.015625 0.828125q0.734375 0 1.328125 -0.21875q0.609375 -0.21875 1.296875 -0.671875l0.734375 1.046875q-0.6875 0.546875 -1.578125 0.84375q-0.890625 0.296875 -1.78125 0.296875q-2.125 0 -3.3125 -1.390625q-1.1875 -1.390625 -1.1875 -3.71875q0 -1.46875 0.515625 -2.640625q0.53125 -1.171875 1.5 -1.828125q0.96875 -0.65625 2.265625 -0.65625q1.859375 0 2.921875 1.296875q1.078125 1.296875 1.078125 3.53125q0 0.421875 -0.03125 0.84375l-6.609375 0zm2.65625 -4.390625q-1.140625 0 -1.859375 0.8125q-0.703125 0.8125 -0.796875 2.375l5.125 0q-0.03125 -1.546875 -0.6875 -2.359375q-0.640625 -0.828125 -1.78125 -0.828125zm7.2874756 -1.078125l1.34375 0l0.140625 1.375q0.578125 -0.75 1.453125 -1.15625q0.890625 -0.421875 1.78125 -0.421875q2.765625 0 2.765625 2.90625l0 7.125l-1.5625 0l0 -5.96875q0 -1.109375 -0.125 -1.6875q-0.125 -0.578125 -0.484375 -0.84375q-0.34375 -0.28125 -1.078125 -0.28125q-0.796875 0 -1.515625 0.484375q-0.703125 0.484375 -1.140625 1.15625l0 7.140625l-1.578125 0l0 -9.828125zm19.021912 9.328125q-0.515625 0.328125 -1.234375 0.515625q-0.703125 0.1875 -1.421875 0.1875q-1.546875 0 -2.421875 -0.8125q-0.875 -0.8125 -0.875 -2.140625l0 -5.84375l-2.265625 0l0 -1.234375l2.265625 0l0 -2.21875l1.5625 -0.1875l0 2.40625l3.421875 0l-0.21875 1.234375l-3.203125 0l0 5.828125q0 0.84375 0.4375 1.265625q0.453125 0.40625 1.453125 0.40625q1.0 0 1.875 -0.46875l0.625 1.0625z" fill-rule="nonzero"/><path fill="#000000" fill-opacity="0.0" d="m735.7402 326.7467l0 28.374573l0.06298828 0l0 28.381348" fill-rule="evenodd"/><path stroke="#000000" stroke-width="1.0" stroke-linejoin="round" stroke-linecap="butt" d="m735.7402 332.7467l0 22.374573l0.06298828 0l0 22.381348" fill-rule="evenodd"/><path fill="#000000" stroke="#000000" stroke-width="1.0" stroke-linecap="butt" d="m737.3919 332.7467l-1.6517334 -4.538086l-1.6517334 4.538086z" fill-rule="evenodd"/><path fill="#000000" stroke="#000000" stroke-width="1.0" stroke-linecap="butt" d="m734.1514 377.50262l1.6517334 4.538086l1.6517334 -4.538086z" fill-rule="evenodd"/><path fill="#e6b89c" d="m667.5827 167.76378l136.37793 0l0 51.11812l-136.37793 0z" fill-rule="evenodd"/><path stroke="#000000" stroke-width="1.0" stroke-linejoin="round" stroke-linecap="butt" d="m667.5827 167.76378l136.37793 0l0 51.11812l-136.37793 0z" fill-rule="evenodd"/><path fill="#000000" d="m723.3061 199.18033q0 -0.515625 0.359375 -0.875q0.375 -0.375 0.890625 -0.375q0.546875 0 0.90625 0.375q0.359375 0.359375 0.359375 0.875q0 0.546875 -0.359375 0.90625q-0.359375 0.359375 -0.90625 0.359375q-0.515625 0 -0.890625 -0.359375q-0.359375 -0.359375 -0.359375 -0.90625zm3.734375 0q0 -0.515625 0.375 -0.875q0.375 -0.375 0.890625 -0.375q0.53125 0 0.890625 0.375q0.359375 0.359375 0.359375 0.875q0 0.546875 -0.359375 0.90625q-0.359375 0.359375 -0.890625 0.359375q-0.515625 0 -0.890625 -0.375q-0.375 -0.375 -0.375 -0.890625zm3.75 0q0 -0.515625 0.359375 -0.875q0.375 -0.375 0.890625 -0.375q0.546875 0 0.90625 0.375q0.359375 0.359375 0.359375 0.875q0 0.546875 -0.359375 0.90625q-0.359375 0.359375 -0.90625 0.359375q-0.515625 0 -0.890625 -0.359375q-0.359375 -0.359375 -0.359375 -0.90625z" fill-rule="nonzero"/><path fill="#000000" d="m737.9686 188.74283l1.890625 -0.78125l0.3125 0.984375l-1.96875 0.453125l1.375 1.5l-0.84375 0.640625l-1.078125 -1.734375l-1.015625 1.765625l-0.875 -0.59375l1.3125 -1.578125l-1.984375 -0.453125l0.3125 -0.984375l1.890625 0.78125l-0.1875 -2.046875l1.046875 0l-0.1875 2.046875zm9.837402 3.65625l0 0.84375l-4.9375 0l0 -0.84375l2.09375 0l0 -6.578125l-1.953125 1.171875l-0.453125 -0.734375l2.546875 -1.578125l0.921875 0l0 7.71875l1.78125 0z" fill-rule="nonzero"/><path fill="#000000" fill-opacity="0.0" d="m735.7402 218.87665l0 28.374542l0.06298828 0l0 28.381348" fill-rule="evenodd"/><path stroke="#000000" stroke-width="1.0" stroke-linejoin="round" stroke-linecap="butt" d="m735.7402 224.87665l0 22.374542l0.06298828 0l0 22.381348" fill-rule="evenodd"/><path fill="#000000" stroke="#000000" stroke-width="1.0" stroke-linecap="butt" d="m737.3919 224.87663l-1.6517334 -4.538086l-1.6517334 4.538086z" fill-rule="evenodd"/><path fill="#000000" stroke="#000000" stroke-width="1.0" stroke-linecap="butt" d="m734.1514 269.63254l1.6517334 4.5381165l1.6517334 -4.5381165z" fill-rule="evenodd"/><path fill="#000000" fill-opacity="0.0" d="m411.4147 326.7467l0 28.374573l0.06298828 0l0 28.381348" fill-rule="evenodd"/><path stroke="#000000" stroke-width="1.0" stroke-linejoin="round" stroke-linecap="butt" d="m411.4147 332.7467l0 22.374573l0.06298828 0l0 28.381348" fill-rule="evenodd"/><path fill="#000000" stroke="#000000" stroke-width="1.0" stroke-linecap="butt" d="m413.06644 332.7467l-1.6517334 -4.538086l-1.6517334 4.538086z" fill-rule="evenodd"/><path fill="#ead2ac" d="m161.88846 275.88058l136.37796 0l0 51.118103l-136.37796 0z" fill-rule="evenodd"/><path stroke="#000000" stroke-width="1.0" stroke-linejoin="round" stroke-linecap="butt" d="m161.88846 275.88058l136.37796 0l0 51.118103l-136.37796 0z" fill-rule="evenodd"/><path fill="#000000" d="m179.7024 282.93774q0.53125 0 0.84375 0.3125q0.3125 0.296875 0.3125 0.78125q0 0.5 -0.3125 0.8125q-0.3125 0.296875 -0.84375 0.296875q-0.5 0 -0.8125 -0.296875q-0.296875 -0.3125 -0.296875 -0.8125q0 -0.484375 0.296875 -0.78125q0.3125 -0.3125 0.8125 -0.3125zm1.25 13.171875l2.765625 0l0 1.25l-7.359375 0l0 -1.25l3.03125 0l0 -7.328125l-2.9375 0l0 -1.25l4.5 0l0 8.578125zm6.209381 -8.578125l1.34375 0l0.140625 1.375q0.578125 -0.75 1.453125 -1.15625q0.890625 -0.421875 1.78125 -0.421875q2.765625 0 2.765625 2.90625l0 7.125l-1.5625 0l0 -5.96875q0 -1.109375 -0.125 -1.6875q-0.125 -0.578125 -0.484375 -0.84375q-0.34375 -0.28125 -1.078125 -0.28125q-0.796875 0 -1.515625 0.484375q-0.703125 0.484375 -1.140625 1.15625l0 7.140625l-1.578125 0l0 -9.828125zm17.006256 -4.140625q1.390625 0 2.65625 0.515625l-0.5 1.171875q-0.921875 -0.40625 -2.109375 -0.40625q-2.046875 0 -2.046875 1.625l0 2.0l3.328125 0l-0.171875 1.25l-3.15625 0l0 7.8125l-1.59375 0l0 -7.8125l-2.328125 0l0 -1.25l2.328125 0l0 -1.96875q0 -1.3125 1.015625 -2.125q1.03125 -0.8125 2.578125 -0.8125zm9.225006 11.546875q0 1.328125 1.625 1.328125q0.765625 0 1.640625 -0.34375l0.421875 1.140625q-0.9375 0.5 -2.34375 0.5q-1.3125 0 -2.109375 -0.71875q-0.796875 -0.734375 -0.796875 -1.984375l0 -10.03125l-3.015625 0l0 -1.25l4.578125 0l0 11.359375zm8.928131 -0.4375q0 0.953125 0.390625 1.390625q0.40625 0.4375 1.265625 0.4375q0.78125 0 1.5 -0.4375q0.73439026 -0.453125 1.1718903 -1.125l0 -7.234375l1.5625 0l0 9.828125l-1.34375 0l-0.125 -1.328125q-0.578125 0.734375 -1.4375153 1.140625q-0.84375 0.390625 -1.71875 0.390625q-1.40625 0 -2.125 -0.734375q-0.71875 -0.75 -0.71875 -2.15625l0 -7.140625l1.578125 0l0 6.96875zm8.803146 2.859375l3.625 -5.1875l-3.203125 -4.640625l1.875 0l2.265625 3.65625l2.296875 -3.65625l1.8125 0l-3.1875 4.5625l3.625 5.265625l-1.90625 0l-2.703125 -4.21875l-2.71875 4.21875l-1.78125 0zm11.084381 2.015625l9.328125 0l0 1.375l-9.328125 0l0 -1.375zm15.365616 -12.046875q1.71875 0 2.75 1.28125l0.125 -1.078125l1.34375 0l0 13.78125l-1.5625 -0.1875l0 -5.0q-1.046875 1.4375 -2.78125 1.4375q-3.6249847 0 -3.6249847 -5.109375q0 -2.28125 0.984375 -3.703125q1.0 -1.421875 2.7656097 -1.421875zm0.390625 1.265625q-2.4374847 0 -2.4374847 3.859375q0 1.921875 0.54685974 2.875q0.5625 0.9375 1.703125 0.9375q0.765625 0 1.375 -0.421875q0.625 -0.421875 1.078125 -1.09375l0 -4.890625q-0.390625 -0.59375 -0.984375 -0.921875q-0.59375 -0.34375 -1.28125 -0.34375zm9.131256 5.90625q0 0.953125 0.390625 1.390625q0.40625 0.4375 1.265625 0.4375q0.78125 0 1.5 -0.4375q0.734375 -0.453125 1.171875 -1.125l0 -7.234375l1.5625 0l0 9.828125l-1.34375 0l-0.125 -1.328125q-0.578125 0.734375 -1.4375 1.140625q-0.84375 0.390625 -1.71875 0.390625q-1.40625 0 -2.125 -0.734375q-0.71875 -0.75 -0.71875 -2.15625l0 -7.140625l1.578125 0l0 6.96875zm10.865631 -1.5q0.0625 1.609375 0.84375 2.4375q0.796875 0.828125 2.015625 0.828125q0.734375 0 1.328125 -0.21875q0.609375 -0.21875 1.296875 -0.671875l0.734375 1.046875q-0.6875 0.546875 -1.578125 0.84375q-0.890625 0.296875 -1.78125 0.296875q-2.125 0 -3.3125 -1.390625q-1.1875 -1.390625 -1.1875 -3.71875q0 -1.46875 0.515625 -2.640625q0.53125 -1.171875 1.5 -1.828125q0.96875 -0.65625 2.265625 -0.65625q1.859375 0 2.921875 1.296875q1.078125 1.296875 1.078125 3.53125q0 0.421875 -0.03125 0.84375l-6.609375 0zm2.65625 -4.390625q-1.140625 0 -1.859375 0.8125q-0.703125 0.8125 -0.796875 2.375l5.125 0q-0.03125 -1.546875 -0.6875 -2.359375q-0.640625 -0.828125 -1.78125 -0.828125z" fill-rule="nonzero"/><path fill="#000000" d="m227.38368 309.32837q0.609375 0 1.390625 0.203125l-0.234375 3.328125l-1.265625 0l0 -2.09375l-0.09375 0q-2.2656403 0 -3.2187653 3.234375l0 4.140625l2.0000153 0l0 1.21875l-5.1250153 0l0 -1.21875l1.546875 0l0 -7.40625l-1.546875 0l0 -1.203125l2.734375 0l0.296875 2.328125q0.59375 -1.265625 1.421875 -1.890625q0.82814026 -0.640625 2.0937653 -0.640625zm9.303131 10.09375q-0.578125 1.6875 -1.59375 2.6875q-1.0 1.015625 -2.8125 1.203125l-0.21875 -1.25q0.984375 -0.171875 1.5625 -0.515625q0.59375 -0.34375 0.921875 -0.859375q0.34375 -0.5 0.625 -1.328125l-0.515625 0l-3.421875 -9.828125l1.65625 0l2.828125 8.640625l2.765625 -8.640625l1.625 0l-3.421875 9.890625z" fill-rule="nonzero"/><path fill="#000000" fill-opacity="0.0" d="m230.04593 326.7467l0 28.374573l0.06298828 0l0 28.381348" fill-rule="evenodd"/><path stroke="#000000" stroke-width="1.0" stroke-linejoin="round" stroke-linecap="butt" d="m230.04593 326.7467l0 28.374573l0.06298828 0l0 22.381348" fill-rule="evenodd"/><path fill="#000000" stroke="#000000" stroke-width="1.0" stroke-linecap="butt" d="m228.45718 377.50262l1.6517334 4.538086l1.6517334 -4.538086z" fill-rule="evenodd"/><path fill="#000000" fill-opacity="0.0" d="m230.04724 219.3819l0 28.374542l0.06298828 0l0 28.381348" fill-rule="evenodd"/><path stroke="#000000" stroke-width="1.0" stroke-linejoin="round" stroke-linecap="butt" d="m230.04724 219.3819l0 28.374542l0.06298828 0l0 22.381348" fill-rule="evenodd"/><path fill="#000000" stroke="#000000" stroke-width="1.0" stroke-linecap="butt" d="m228.45851 270.1378l1.6517181 4.5381165l1.6517334 -4.5381165z" fill-rule="evenodd"/><path fill="#000000" fill-opacity="0.0" d="m131.92126 111.46719l0.03149414 274.04724" fill-rule="evenodd"/><path stroke="#ff9900" stroke-width="4.0" stroke-linejoin="round" stroke-linecap="butt" d="m131.92401 135.4672l0.025985718 226.04724" fill-rule="evenodd"/><path fill="#ff9900" stroke="#ff9900" stroke-width="4.0" stroke-linecap="butt" d="m138.53094 135.46643l-6.609009 -18.151627l-6.604851 18.153152z" fill-rule="evenodd"/><path fill="#ff9900" stroke="#ff9900" stroke-width="4.0" stroke-linecap="butt" d="m125.34307 361.5152l6.6090164 18.151642l6.604843 -18.153168z" fill-rule="evenodd"/><path fill="#000000" fill-opacity="0.0" d="m101.88189 152.28346l22.330711 0l0 31.622055l-22.330711 0z" fill-rule="evenodd"/><path fill="#000000" d="m117.835014 179.20346l-1.640625 0l0 -10.453125q-0.59375 0.5625 -1.5625 1.140625q-0.953125 0.5625 -1.71875 0.84375l0 -1.59375q1.375 -0.640625 2.40625 -1.5625q1.03125 -0.921875 1.453125 -1.78125l1.0625 0l0 13.40625z" fill-rule="nonzero"/><path fill="#000000" fill-opacity="0.0" d="m192.59317 440.77692l14.48819 0l0 28.97638l-14.48819 0z" fill-rule="evenodd"/><path fill="#000000" d="m207.47198 466.11877l0 1.578125l-8.828125 0q-0.015625 -0.59375 0.1875 -1.140625q0.34375 -0.90625 1.078125 -1.78125q0.75 -0.875 2.15625 -2.015625q2.171875 -1.78125 2.9375 -2.828125q0.765625 -1.046875 0.765625 -1.96875q0 -0.984375 -0.703125 -1.640625q-0.6875 -0.671875 -1.8125 -0.671875q-1.1875 0 -1.90625 0.71875q-0.703125 0.703125 -0.703125 1.953125l-1.6875 -0.171875q0.171875 -1.890625 1.296875 -2.875q1.140625 -0.984375 3.03125 -0.984375q1.921875 0 3.046875 1.0625q1.125 1.0625 1.125 2.640625q0 0.796875 -0.328125 1.578125q-0.328125 0.78125 -1.09375 1.640625q-0.75 0.84375 -2.53125 2.34375q-1.46875 1.234375 -1.890625 1.6875q-0.421875 0.4375 -0.6875 0.875l6.546875 0z" fill-rule="nonzero"/><path fill="#000000" fill-opacity="0.0" d="m192.59317 558.0184l14.48819 0l0 31.62207l-14.48819 0z" fill-rule="evenodd"/><path fill="#000000" d="m198.86261 581.4071l1.640625 -0.21875q0.28125 1.40625 0.953125 2.015625q0.6875 0.609375 1.65625 0.609375q1.15625 0 1.953125 -0.796875q0.796875 -0.796875 0.796875 -1.984375q0 -1.125 -0.734375 -1.859375q-0.734375 -0.734375 -1.875 -0.734375q-0.46875 0 -1.15625 0.171875l0.1875 -1.4375q0.15625 0.015625 0.265625 0.015625q1.046875 0 1.875 -0.546875q0.84375 -0.546875 0.84375 -1.671875q0 -0.90625 -0.609375 -1.5q-0.609375 -0.59375 -1.578125 -0.59375q-0.953125 0 -1.59375 0.609375q-0.640625 0.59375 -0.8125 1.796875l-1.640625 -0.296875q0.296875 -1.640625 1.359375 -2.546875q1.0625 -0.90625 2.65625 -0.90625q1.09375 0 2.0 0.46875q0.921875 0.46875 1.40625 1.28125q0.5 0.8125 0.5 1.71875q0 0.859375 -0.46875 1.578125q-0.46875 0.703125 -1.375 1.125q1.1875 0.28125 1.84375 1.140625q0.65625 0.859375 0.65625 2.15625q0 1.734375 -1.28125 2.953125q-1.265625 1.21875 -3.21875 1.21875q-1.765625 0 -2.921875 -1.046875q-1.15625 -1.046875 -1.328125 -2.71875z" fill-rule="nonzero"/><path fill="#000000" fill-opacity="0.0" d="m215.13911 559.3412l22.330704 0l0 28.97638l-22.330704 0z" fill-rule="evenodd"/><path fill="#000000" d="m230.17036 586.2612l0 -3.203125l-5.796875 0l0 -1.5l6.09375 -8.65625l1.34375 0l0 8.65625l1.796875 0l0 1.5l-1.796875 0l0 3.203125l-1.640625 0zm0 -4.703125l0 -6.015625l-4.1875 6.015625l4.1875 0z" fill-rule="nonzero"/><path fill="#000000" fill-opacity="0.0" d="m222.8924 448.67978l14.48819 0l0 28.97638l-14.48819 0z" fill-rule="evenodd"/><path fill="#000000" d="m229.16183 472.0998l1.71875 -0.140625q0.1875 1.25 0.875 1.890625q0.703125 0.625 1.6875 0.625q1.1875 0 2.0 -0.890625q0.828125 -0.890625 0.828125 -2.359375q0 -1.40625 -0.796875 -2.21875q-0.78125 -0.8125 -2.0625 -0.8125q-0.78125 0 -1.421875 0.359375q-0.640625 0.359375 -1.0 0.9375l-1.546875 -0.203125l1.296875 -6.859375l6.640625 0l0 1.5625l-5.328125 0l-0.71875 3.59375q1.203125 -0.84375 2.515625 -0.84375q1.75 0 2.953125 1.21875q1.203125 1.203125 1.203125 3.109375q0 1.8125 -1.046875 3.140625q-1.296875 1.625 -3.515625 1.625q-1.8125 0 -2.96875 -1.015625q-1.15625 -1.03125 -1.3125 -2.71875z" fill-rule="nonzero"/><path fill="#000000" fill-opacity="0.0" d="m138.58267 331.43832l22.330719 0l0 28.97638l-22.330719 0z" fill-rule="evenodd"/><path fill="#000000" d="m156.86392 348.28018l-1.625 0.125q-0.21875 -0.96875 -0.625 -1.40625q-0.65625 -0.703125 -1.640625 -0.703125q-0.78125 0 -1.375 0.4375q-0.765625 0.5625 -1.21875 1.65625q-0.453125 1.078125 -0.46875 3.078125q0.59375 -0.890625 1.453125 -1.328125q0.859375 -0.4375 1.796875 -0.4375q1.640625 0 2.78125 1.203125q1.15625 1.203125 1.15625 3.109375q0 1.265625 -0.546875 2.34375q-0.53125 1.078125 -1.484375 1.65625q-0.9375 0.578125 -2.140625 0.578125q-2.0625 0 -3.359375 -1.5q-1.28125 -1.515625 -1.28125 -4.984375q0 -3.875 1.421875 -5.625q1.25 -1.53125 3.375 -1.53125q1.5625 0 2.5625 0.890625q1.015625 0.875 1.21875 2.4375zm-6.6875 5.75q0 0.84375 0.359375 1.625q0.359375 0.765625 1.0 1.171875q0.640625 0.40625 1.359375 0.40625q1.03125 0 1.78125 -0.828125q0.75 -0.84375 0.75 -2.28125q0 -1.390625 -0.734375 -2.1875q-0.734375 -0.796875 -1.859375 -0.796875q-1.109375 0 -1.890625 0.796875q-0.765625 0.796875 -0.765625 2.09375z" fill-rule="nonzero"/></g></svg>